<?xml version="1.0" encoding="UTF-8"?>
<svg version="1.1" xmlns="http://www.w3.org/2000/svg" width="1054" height="901">
<path d="M0 0 C1.03785645 0.44601563 2.07571289 0.89203125 3.14501953 1.3515625 C17.45268042 7.56221778 31.08287914 14.6507156 44.52880859 22.54980469 C46.64269926 23.79032144 48.76533431 25.01262099 50.89453125 26.2265625 C68.01471145 36.10386265 84.64337362 47.56313858 100 60 C100.89847656 60.71929687 101.79695312 61.43859375 102.72265625 62.1796875 C120.04711528 76.1888184 137.52992335 90.82161008 152.05859375 107.77734375 C153.99887321 109.99870997 155.99226009 112.16483848 157.99975586 114.32543945 C163.28178059 120.01825843 168.23556023 125.86261704 173 132 C174.06057597 133.34293933 175.12183338 134.68534064 176.18359375 136.02734375 C190.50333853 154.18537064 202.70451733 172.84709255 214 193 C214.4026709 192.26031982 214.8053418 191.52063965 215.22021484 190.75854492 C215.75340332 189.77990479 216.2865918 188.80126465 216.8359375 187.79296875 C217.3623584 186.82641357 217.8887793 185.8598584 218.43115234 184.86401367 C228.80214835 165.93121657 241.72855014 150.17841992 259.17431641 137.35693359 C260.64197003 136.26610465 262.06703778 135.11809496 263.4765625 133.953125 C276.40473983 123.9467958 289.18240636 119.56869327 305.56738281 121.55126953 C315.37317204 123.36008533 322.19360981 131.38150562 328 139 C329.76645597 141.93265992 330.32510242 144.35116079 330.625 147.75 C330.69976563 148.54921875 330.77453125 149.3484375 330.8515625 150.171875 C330.90054688 150.77515625 330.94953125 151.3784375 331 152 C331.66 152 332.32 152 333 152 C334.77837613 155.55675225 334.22747078 159.64523216 334.25 163.5625 C334.2809375 164.86670898 334.2809375 164.86670898 334.3125 166.19726562 C334.34439838 171.54423106 333.65380658 175.84445299 331.78417969 180.84985352 C330.31943961 184.86603218 329.48126133 189.06056964 328.5390625 193.22460938 C327.52264917 197.50270974 326.08995369 201.13812904 324 205 C323.00893644 207.29183449 322.13208596 209.57766144 321.38671875 211.9609375 C319.49018156 218.00019001 316.94354566 223.40448632 314 229 C313.19753421 230.54928113 312.39548892 232.0987801 311.59375 233.6484375 C310.70896209 235.34928557 309.8235386 237.04980314 308.9375 238.75 C308.3021936 239.97468994 308.3021936 239.97468994 307.65405273 241.22412109 C305.8252914 244.70900469 303.9848957 248.02245666 301.78515625 251.29296875 C300.14238331 253.78408833 299.27479499 255.71308949 298.5 258.5625 C297.28670714 262.48939408 295.63838591 264.81841699 293 268 C292.22324585 269.52836158 291.47647103 271.07210723 290.75 272.625 C288.31885297 277.67604772 285.25052411 282.00076883 281.8671875 286.45703125 C279.99267069 288.9070075 279.99267069 288.9070075 278.66015625 291.35546875 C276.32913123 295.06865449 273.46507348 298.22447015 270.5625 301.5 C268.86992129 303.42295219 267.17982999 305.34746832 265.50244141 307.28369141 C264.21595816 308.75330097 262.89088323 310.18897318 261.55859375 311.6171875 C259.52291858 314.72937259 259.78956122 316.00737094 260.5 319.625 C260.7165625 320.85605469 260.933125 322.08710938 261.15625 323.35546875 C261.28902344 324.0726709 261.42179688 324.78987305 261.55859375 325.52880859 C269.29163638 368.82187139 270.19183389 412.3561464 265 456 C264.86078125 457.19898926 264.7215625 458.39797852 264.578125 459.63330078 C259.64515606 500.87269274 248.78142783 540.61434659 233 579 C232.64260742 579.8854248 232.28521484 580.77084961 231.91699219 581.68310547 C227.36851863 592.92312407 222.21777828 603.83878769 216.8125 614.6875 C216.23016602 615.85780762 215.64783203 617.02811523 215.04785156 618.23388672 C211.63161359 625.00900409 207.97380424 631.53959178 204 638 C202.92216879 639.81373319 201.84672801 641.62888863 200.7734375 643.4453125 C194.21556663 654.44579778 187.42814048 664.98601929 179.51513672 675.05664062 C177.91483613 677.10923371 176.34737309 679.18392061 174.78515625 681.265625 C165.30206859 693.87630927 155.16746015 705.76053836 144.44921875 717.33203125 C142.42016022 719.54231351 140.44800735 721.78134175 138.5 724.0625 C132.21119011 731.30141786 125.29839237 738.05470388 118.00390625 744.2734375 C115.74766614 746.21741046 113.56636107 748.23323518 111.375 750.25 C105.8396288 755.23267151 100.03189909 759.81853709 94.1328125 764.35595703 C91.75893514 766.18582083 89.3955817 768.02891534 87.03125 769.87109375 C55.87968275 794.02104672 21.20790992 813.47675244 -15 829 C-15.86399414 829.37189453 -16.72798828 829.74378906 -17.61816406 830.12695312 C-59.69788822 847.99232459 -105.45622889 858.5505944 -151 862 C-152.10545166 862.08540039 -153.21090332 862.17080078 -154.34985352 862.25878906 C-205.61092683 865.86149439 -257.36698117 861.45311316 -307 848 C-307.84272461 847.77376953 -308.68544922 847.54753906 -309.55371094 847.31445312 C-370.18368352 830.77246772 -428.96472556 799.52286225 -476.42871094 758.34472656 C-477.94521522 757.04688542 -479.49173438 755.7843707 -481.0390625 754.5234375 C-489.49414314 747.5962575 -497.21620398 739.97213486 -504.9375 732.25 C-505.48192749 731.70647888 -506.02635498 731.16295776 -506.58728027 730.60296631 C-512.60633938 724.58277247 -518.50535888 718.50944613 -524 712 C-524.90076349 710.95548921 -525.80179113 709.91120614 -526.703125 708.8671875 C-597 626.2791411 -597 626.2791411 -597 593 C-597.845625 593.13019531 -598.69125 593.26039063 -599.5625 593.39453125 C-610.80256931 594.7612215 -610.80256931 594.7612215 -615.96484375 590.859375 C-620.48372869 586.73079682 -624.75920335 582.41194987 -629 578 C-629.87011719 577.13503906 -630.74023438 576.27007813 -631.63671875 575.37890625 C-640.55523479 566.40142482 -643.33742032 556.94814886 -643.41674805 544.32446289 C-643.40297119 543.33051514 -643.38919434 542.33656738 -643.375 541.3125 C-643.36702393 540.2495874 -643.35904785 539.1866748 -643.35083008 538.09155273 C-643.21352711 530.19923918 -642.60177944 522.4009459 -641.6875 514.5625 C-641.57003418 513.5516333 -641.45256836 512.5407666 -641.33154297 511.49926758 C-640.60236197 505.90562053 -639.41984352 500.72468114 -637.70239258 495.35571289 C-636.63199978 491.76578585 -636.06802238 488.13416726 -635.5 484.4375 C-634.62149681 479.09283388 -633.58399344 474.07117673 -631.68359375 468.98046875 C-630.69774112 466.12431285 -630.16181361 463.20753156 -629.625 460.23828125 C-629 458 -629 458 -627.53125 455.16015625 C-625.89631573 451.78601895 -625.18801814 448.80262079 -624.5 445.125 C-623.42653802 439.77455078 -622.00528565 435.0568073 -620 430 C-619.64764413 428.60884683 -619.31433809 427.21273333 -619 425.8125 C-618 422 -618 422 -616.53125 419.6328125 C-614.86020894 416.75964497 -614.20036278 414.30167786 -613.5 411.0625 C-612.46741087 406.63480106 -611.11022116 403.03694483 -609 399 C-608.6371547 397.65344077 -608.30546846 396.29822315 -608 394.9375 C-607.20724377 391.47164839 -605.89299301 389.02878882 -604 386 C-603.18954724 384.00596523 -602.45799169 381.995965 -601.74609375 379.96484375 C-601 378 -601 378 -600.00390625 376.16015625 C-598.69336805 373.34020439 -598.14144116 370.53987332 -597.5 367.5 C-596.69793252 363.69889758 -595.92715343 360.3891319 -594 357 C-593.34 357 -592.68 357 -592 357 C-592.0825 355.948125 -592.165 354.89625 -592.25 353.8125 C-592 350 -592 350 -590.125 347.6875 C-587.67676185 344.59119881 -586.8197469 341.96981938 -585.75 338.1875 C-585.41484375 337.02605469 -585.0796875 335.86460937 -584.734375 334.66796875 C-584.49203125 333.78753906 -584.2496875 332.90710938 -584 332 C-583.34 332 -582.68 332 -582 332 C-581.896875 330.783125 -581.79375 329.56625 -581.6875 328.3125 C-581.22572682 324.59852427 -580.34666887 322.00373615 -578 319 C-577.34 319 -576.68 319 -576 319 C-575.9175 317.9275 -575.835 316.855 -575.75 315.75 C-575 312 -575 312 -573.0625 310.125 C-570.3300422 307.30974045 -570.15188958 304.82514075 -569.58984375 301.0234375 C-569 299 -569 299 -566 297 C-565.5359375 295.3603125 -565.5359375 295.3603125 -565.0625 293.6875 C-563.94036845 289.79304343 -562.53934128 288.07798943 -560 285 C-559.42157992 283.78769489 -558.88049024 282.55698105 -558.375 281.3125 C-557 278 -557 278 -555 276 C-554.28072705 273.68234271 -553.6090107 271.34904126 -553 269 C-552.34 269 -551.68 269 -551 269 C-550.731875 268.14664062 -550.46375 267.29328125 -550.1875 266.4140625 C-548.98209663 262.94852782 -547.55587801 259.69679956 -546 256.375 C-545.2265625 254.71597656 -545.2265625 254.71597656 -544.4375 253.0234375 C-543.31741702 250.6676108 -542.1800836 248.32612633 -541 246 C-540.34 246 -539.68 246 -539 246 C-538.9071875 244.7625 -538.9071875 244.7625 -538.8125 243.5 C-537.91476279 239.63282431 -536.43179063 237.21714104 -534.265625 233.94921875 C-532.61451667 231.40630809 -531.33052667 228.72153183 -530 226 C-528.49336901 223.31426649 -527.04898423 221.05510726 -525 218.75 C-522.70286841 215.59144407 -521.81971149 212.72502073 -520.80859375 208.98828125 C-520 207 -520 207 -517 205 C-516.13065489 202.71980326 -516.13065489 202.71980326 -515.5625 200.125 C-514.42418942 195.94919749 -513.30502931 193.87857392 -510 191 C-509.67 190.154375 -509.34 189.30875 -509 188.4375 C-507.77092187 185.44162206 -506.91584 184.41851676 -504 183 C-498.07168124 183.11624154 -493.19294161 185.35649168 -488 188 C-487.3709375 188.31066406 -486.741875 188.62132812 -486.09375 188.94140625 C-484.4375 189.875 -484.4375 189.875 -482 192 C-481.32769778 195.5109116 -481.6570509 197.31410181 -483.25 200.5 C-483.8275 201.325 -484.405 202.15 -485 203 C-485.66 204.010625 -486.32 205.02125 -487 206.0625 C-488.15856332 207.76413987 -489.35098764 209.44548431 -490.625 211.0625 C-492.12137549 213.00499349 -492.12137549 213.00499349 -493 215.5625 C-494 218 -494 218 -495.5 219.4375 C-497.23711954 221.02037033 -497.23711954 221.02037033 -497.9375 223.875 C-499.50046277 228.47194931 -502.42166395 231.35281442 -505.625 234.9375 C-507.99929422 237.99908991 -508.86494638 240.35161337 -510 244 C-510.48597656 244.46148437 -510.97195313 244.92296875 -511.47265625 245.3984375 C-513.34608948 247.36290713 -513.67892673 248.81269643 -514.3125 251.4375 C-516.03700438 257.71432508 -518.95832902 263.27102747 -522 269 C-522.66 269 -523.32 269 -524 269 C-524.0928125 270.60875 -524.0928125 270.60875 -524.1875 272.25 C-525.16814521 276.77605482 -526.46964153 277.26397218 -530 280 C-530.6644218 282.98650805 -530.6644218 282.98650805 -531 286 C-531.4846875 286.61617188 -531.969375 287.23234375 -532.46875 287.8671875 C-534.26721934 290.37219837 -534.50357555 292.09019049 -534.875 295.125 C-535.328125 297.78125 -535.328125 297.78125 -536 300 C-538.625 301.625 -538.625 301.625 -541 302 C-541.0825 302.99 -541.165 303.98 -541.25 305 C-541.90166014 309.51636679 -543.84596842 313.02828064 -546 317 C-548.43307608 321.69396524 -550.83326128 326.33127875 -552.625 331.3125 C-553.83250658 334.5508131 -555.23599652 337.0599942 -557 340 C-557.74465636 341.91020545 -558.48617159 343.82204764 -559.18359375 345.75 C-561.3791151 351.80081482 -563.66366048 357.48778688 -567 363 C-567.8037683 365.06166568 -568.5445684 367.13451567 -569.25390625 369.23046875 C-570 371 -570 371 -572 373 C-572.82112513 375.50636622 -573.46295272 378.03625656 -574.12109375 380.58984375 C-575 383 -575 383 -576.46118164 384.421875 C-579.04365594 387.07031445 -579.84971974 390.61872529 -581 394.0625 C-581.39409058 395.2067041 -581.39409058 395.2067041 -581.79614258 396.37402344 C-583.45679485 401.23784127 -584.94187226 406.13591686 -586.3515625 411.078125 C-587 413 -587 413 -588.5625 415.5 C-590.46658885 418.81145887 -590.78688845 422.03281141 -591.27734375 425.79296875 C-592 428 -592 428 -594.06640625 429.30078125 C-594.70449219 429.53152344 -595.34257813 429.76226562 -596 430 C-596.04898438 431.25296875 -596.09796875 432.5059375 -596.1484375 433.796875 C-596.22348583 435.44793821 -596.29903277 437.09897881 -596.375 438.75 C-596.42140625 439.9875 -596.42140625 439.9875 -596.46875 441.25 C-596.50742187 442.04921875 -596.54609375 442.8484375 -596.5859375 443.671875 C-596.6173584 444.4050293 -596.6487793 445.13818359 -596.68115234 445.89355469 C-597.04357812 448.2878959 -597.73647048 449.93995853 -599 452 C-599.66 452.33 -600.32 452.66 -601 453 C-601.35667822 455.81178353 -601.35667822 455.81178353 -601.4375 459.125 C-601.75578429 464.48278547 -602.47983429 468.28838585 -605 473 C-605.66 473 -606.32 473 -607 473 C-607.03738281 473.845625 -607.07476563 474.69125 -607.11328125 475.5625 C-607.55712639 483.22100444 -608.56019972 489.12039945 -612 496 C-612.19847138 497.6724911 -612.3449519 499.35129664 -612.46484375 501.03125 C-612.54162354 502.0617749 -612.61840332 503.0922998 -612.69750977 504.15405273 C-612.81630493 505.81029663 -612.81630493 505.81029663 -612.9375 507.5 C-613.5438162 515.49130496 -614.18698384 523.47071792 -615.0625 531.4375 C-615.14169678 532.18128906 -615.22089355 532.92507813 -615.30249023 533.69140625 C-615.87539903 538.75079805 -615.87539903 538.75079805 -617 541 C-617.20717178 543.67021407 -617.37377775 546.32595835 -617.5 549 C-617.86486486 556.72972973 -617.86486486 556.72972973 -619 559 C-618.071875 559.061875 -618.071875 559.061875 -617.125 559.125 C-615 560 -615 560 -613.6875 562.5 C-612.50875359 568.50089081 -613.78216276 574.07735564 -615 580 C-613.39743892 580.50512244 -611.79288208 581.00391627 -610.1875 581.5 C-609.29417969 581.7784375 -608.40085937 582.056875 -607.48046875 582.34375 C-604.94426605 583.12788351 -604.94426605 583.12788351 -602 583 C-602.99 579.37 -603.98 575.74 -605 572 C-599.375 567 -599.375 567 -596 567 C-595.74420166 567.62229492 -595.48840332 568.24458984 -595.22485352 568.88574219 C-582.84826964 598.93803985 -569.46388837 627.52133867 -552 655 C-549 659.7473904 -549 659.7473904 -549 662 C-548.34 662 -547.68 662 -547 662 C-545.6953125 663.87890625 -545.6953125 663.87890625 -544.125 666.5625 C-539.78375818 673.595493 -534.64168115 679.87983716 -529.41308594 686.26660156 C-527.48016942 688.63766363 -525.5849432 691.03800957 -523.6875 693.4375 C-520.6745296 697.22108338 -517.52068272 700.84354203 -514.25 704.40625 C-513 706 -513 706 -513 708 C-512.34 708 -511.68 708 -511 708 C-509.66894531 709.34790039 -509.66894531 709.34790039 -508.078125 711.28515625 C-503.71389634 716.41323775 -499.00828294 721.1777961 -494.24951172 725.93579102 C-492.76106763 727.42641615 -491.28082723 728.92487017 -489.80078125 730.42382812 C-484.26901396 735.9871875 -478.59629996 741.15335164 -472.43261719 746.02880859 C-470.01625058 747.98683188 -467.75564239 750.04763301 -465.5 752.1875 C-453.48144581 763.11693242 -439.63098748 772.21160018 -426 781 C-425.40251953 781.39074707 -424.80503906 781.78149414 -424.18945312 782.18408203 C-381.30878644 810.1800776 -333.68371782 829.19983906 -284 841 C-282.99598145 841.23847656 -281.99196289 841.47695313 -280.95751953 841.72265625 C-267.55598945 844.82434944 -254.0943394 846.73797329 -240.4375 848.25 C-239.68663116 848.33317474 -238.93576233 848.41634949 -238.16213989 848.50204468 C-221.66184195 850.30173586 -205.22302109 851.23590771 -188.625 851.25 C-187.78772369 851.25100708 -186.95044739 851.25201416 -186.08779907 851.25305176 C-133.83085674 851.21112635 -80.83425323 841.67776135 -32 823 C-31.18176758 822.69046387 -30.36353516 822.38092773 -29.52050781 822.06201172 C-5.49150545 812.87933538 18.12125949 801.53510365 40 788 C41.04542969 787.35675781 42.09085938 786.71351563 43.16796875 786.05078125 C45.800639 784.39840006 48.4039052 782.7091295 51 781 C51.87785156 780.43539062 52.75570312 779.87078125 53.66015625 779.2890625 C72.57475924 766.95684542 90.68534375 753.08639807 107.15625 737.6328125 C109.34254875 735.60868426 111.55281175 733.6509642 113.80859375 731.70703125 C118.24645738 727.84027404 122.41298003 723.7345513 126.5625 719.5625 C127.27857422 718.85029297 127.99464844 718.13808594 128.73242188 717.40429688 C133.36118031 712.76711486 137.74257811 707.9787288 142 703 C142.87750476 701.99079897 143.75510105 700.98167752 144.6328125 699.97265625 C152.10844677 691.2432714 159.12719002 682.20976841 166 673 C166.53383301 672.28714844 167.06766602 671.57429687 167.61767578 670.83984375 C183.96216258 648.92122562 198.22179505 625.6740912 210 601 C210.33966797 600.29020996 210.67933594 599.58041992 211.02929688 598.84912109 C229.31859477 560.26960119 242.20661358 519.59439337 249.25 477.5 C249.37514984 476.75321991 249.50029968 476.00643982 249.62924194 475.23703003 C251.40802166 464.52403566 252.81461124 453.79417044 254 443 C253.06542969 443.62648438 252.13085938 444.25296875 251.16796875 444.8984375 C248.48291314 446.67964578 245.7684166 448.35391445 243 450 C242.01 450.66 241.02 451.32 240 452 C237.50190361 452.56301004 235.00257131 452.94681019 232.47265625 453.33984375 C229.93421756 453.85007435 229.93421756 453.85007435 227.99609375 455.5234375 C220.36397098 461.16911736 203.49291815 458.14874446 194.47265625 457.4140625 C191.73977758 456.95642405 189.49340528 456.20550725 187 455 C186.67 454.34 186.34 453.68 186 453 C184.845 452.608125 183.69 452.21625 182.5 451.8125 C174.96982384 449.13570488 168.47146879 443.56746979 164 437 C163.64080679 435.00448218 163.30503431 433.00451121 163 431 C162.35675781 430.45085937 161.71351563 429.90171875 161.05078125 429.3359375 C158.21607087 426.10706739 158.09941103 422.8701384 157.75 418.75 C157.67265625 418.00492187 157.5953125 417.25984375 157.515625 416.4921875 C157.32801641 414.66300372 157.16186597 412.83164126 157 411 C153.6136749 409.49069817 153.6136749 409.49069817 150 409 C149.62681641 409.88751953 149.62681641 409.88751953 149.24609375 410.79296875 C147.82475751 413.31038246 146.33229121 414.5414711 144.0625 416.3125 C140.23926835 419.51797429 138.88790448 422.36605264 137 427 C135.5664041 428.24244978 134.12703186 429.48285111 132.609375 430.62109375 C130.10541897 432.76647356 128.36448792 435.40758221 126.4453125 438.0703125 C123.17210734 442.44048371 119.57594124 446.23892645 114.25 447.8125 C109.05279539 449.71147861 105.07851051 452.38223423 102 457 C99.21484375 457.9140625 99.21484375 457.9140625 95.9375 458.625 C92.15914199 459.18485263 92.15914199 459.18485263 89 461 C84.53204304 461.89359139 80.4667313 462.66669604 76.25 460.75 C75.5075 460.1725 74.765 459.595 74 459 C73.030625 458.608125 72.06125 458.21625 71.0625 457.8125 C65.11339612 454.29160179 61.3987617 448.34443721 59.46875 441.76171875 C58.84968287 438.11438159 58.67799057 434.50333538 58.625 430.8125 C58.60397217 429.79639648 58.60397217 429.79639648 58.58251953 428.75976562 C58.62768134 424.0397775 59.85599538 421.12476016 62 417 C62.63769399 413.38507222 63.0017733 409.79515494 63.375 406.14453125 C64.04298824 402.7837154 64.55464954 402.17087234 67 400 C67.88019865 397.71392852 68.50513153 395.4188982 69.15625 393.05859375 C70 391 70 391 73 389 C73.87663422 386.62691847 73.87663422 386.62691847 74.4375 383.875 C75.53023799 379.47529179 76.94087458 375.77174648 79.08203125 371.79296875 C80.36334188 369.29032373 81.19382033 366.68726555 82 364 C82.66 364 83.32 364 84 364 C84.17015625 363.31292969 84.3403125 362.62585938 84.515625 361.91796875 C84.75796875 361.01691406 85.0003125 360.11585938 85.25 359.1875 C85.48203125 358.29417969 85.7140625 357.40085937 85.953125 356.48046875 C87.17319159 353.58963933 88.50928464 352.80362147 91 351 C91.37400786 348.67284 91.70764733 346.33882138 92 344 C93.4375 342.0625 93.4375 342.0625 95 341 C95.66 341 96.32 341 97 341 C97.66 337.7 98.32 334.4 99 331 C99.99 330.67 100.98 330.34 102 330 C102.88561346 328.63751775 103.76734947 327.27235163 104.62890625 325.89453125 C108.01921742 321.20991325 112.45005544 315.84998152 118 314 C119.39439664 313.93334624 120.79169875 313.91461801 122.1875 313.9375 C123.445625 313.958125 124.70375 313.97875 126 314 C126.2475 314.639375 126.495 315.27875 126.75 315.9375 C127.80148727 318.19060573 127.80148727 318.19060573 130.0625 318.625 C130.701875 318.74875 131.34125 318.8725 132 319 C134.12632408 323.25264817 133.60190815 328.39483485 133 333 C131.43477439 336.37731567 129.30330418 339.09370817 127 342 C126.08351656 343.38236253 125.18650698 344.77789727 124.3125 346.1875 C123.70148438 347.16783203 123.70148438 347.16783203 123.078125 348.16796875 C121.87189486 350.15833404 121.87189486 350.15833404 120.5625 353 C119.2014798 355.61315879 117.82798008 357.53538476 116 359.8125 C113.30802154 363.29818219 112.00238503 366.43968383 110.77734375 370.63671875 C109.34774345 374.98299101 107.11271377 378.95408409 105 383 C104.195625 384.6396875 104.195625 384.6396875 103.375 386.3125 C102 389 102 389 100.625 391.25 C97.47641447 396.57837551 94.72042895 402.14721561 92.375 407.875 C91 411 91 411 89.45703125 412.6171875 C87.20622258 416.29813466 87.42838522 420.01191192 87.3125 424.25 C87.27833984 425.09046875 87.24417969 425.9309375 87.20898438 426.796875 C87.12676432 428.86412204 87.06169843 430.93203874 87 433 C90.6084267 430.94171739 93.75582787 428.66691778 96.9375 426 C100.04353157 423.41511467 103.15136372 420.86360335 106.37109375 418.421875 C113.27023009 413.17373131 119.59045585 407.71326648 125.56201172 401.41503906 C128.78481393 398.0485584 132.06793946 395.55142131 136 393 C137.68732277 391.01739574 139.35366057 389.0167658 141 387 C142.4540625 385.8553125 142.4540625 385.8553125 143.9375 384.6875 C151.38222378 378.66631514 154.2001969 370.97099412 155.26123047 361.72314453 C155.46307422 359.37903886 155.63804496 357.03379042 155.8125 354.6875 C157.33491971 337.41881811 162.40307876 320.73080317 168.6875 304.625 C169.96205933 301.10478851 170.74007112 297.7554214 171.375 294.078125 C172 292 172 292 173.4375 290.125 C175.40425948 287.45020711 176.09356702 284.93762264 177 281.75 C178.2833334 277.37788315 179.64575823 273.11293867 181.29296875 268.8671875 C182.04339829 266.88539014 182.71485592 264.88862385 183.375 262.875 C184.737337 258.75915648 186.13396929 254.65581 187.5625 250.5625 C187.97628906 249.36753906 188.39007812 248.17257812 188.81640625 246.94140625 C190 244 190 244 192 242 C192.58972076 240.47606814 193.12237964 238.92983493 193.625 237.375 C195.65425687 231.5705596 198.28399109 226.20180551 201.09423828 220.74755859 C202.07640563 218.83818703 203.04255445 216.92187611 204 215 C204.46962158 214.07670898 204.46962158 214.07670898 204.94873047 213.13476562 C206.18799252 210.53097823 207.00996041 208.44750688 206.9453125 205.54296875 C205.59892579 201.92107722 203.80345299 198.65473085 201.875 195.3125 C201.26712646 194.24467285 201.26712646 194.24467285 200.64697266 193.15527344 C197.89659429 188.38621909 194.91880424 183.86873823 191.67578125 179.41796875 C189.80172332 176.71390847 188.18553212 173.92387265 186.5625 171.0625 C183.10746044 165.0430533 179.19618065 159.52168898 175 154 C174.6090918 153.4829248 174.21818359 152.96584961 173.81542969 152.43310547 C166.0373298 142.15600527 158.03702485 132.09988733 149.3359375 122.58203125 C148.05411249 121.16516447 146.77886287 119.74184074 145.53588867 118.29077148 C140.48061298 112.39828791 135.062314 106.91386063 129.5625 101.4375 C128.65951172 100.53064453 127.75652344 99.62378906 126.82617188 98.68945312 C121.7135693 93.58425475 116.51390268 88.66857643 111 84 C110.07316406 83.20335938 109.14632812 82.40671875 108.19140625 81.5859375 C95.65409104 71.04192501 82.64280246 61.07458929 69 52 C68.3719043 51.58041016 67.74380859 51.16082031 67.09667969 50.72851562 C-2.31698274 4.54264019 -84.25739433 -24.13456234 -168 -26 C-169.41224854 -26.03287109 -169.41224854 -26.03287109 -170.85302734 -26.06640625 C-268.62979919 -27.97455597 -363.21252105 1.38673402 -482 90 C-483.6726456 91.66066621 -485.33834448 93.32833721 -487 95 C-487.96671318 95.9582648 -488.93452662 96.91542065 -489.90332031 97.87158203 C-492.74662384 100.67897593 -495.58356502 103.49270745 -498.41845703 106.30859375 C-499.63050571 107.5106255 -500.8443486 108.71085104 -502.06005859 109.90917969 C-510.38563051 118.1192759 -518.06585154 126.45639555 -525.11816406 135.80908203 C-525.73916992 136.53208496 -526.36017578 137.25508789 -527 138 C-527.66 138 -528.32 138 -529 138 C-529.23203125 138.52722656 -529.4640625 139.05445313 -529.703125 139.59765625 C-531.41937753 142.77685898 -533.55582049 145.58049543 -535.75 148.4375 C-536.16765625 148.99759766 -536.5853125 149.55769531 -537.015625 150.13476562 C-539.98333404 154.01178796 -543.15333789 156.99128037 -547 160 C-551.455 157.525 -551.455 157.525 -556 155 C-554.16831705 151.33663411 -552.564768 149.25425288 -549.8125 146.3125 C-546.96635734 143.20884919 -544.23306045 140.10437152 -541.6875 136.75 C-526.85691766 117.36139464 -509.52785483 98.33292249 -490.86328125 82.5859375 C-488.64528815 80.69808593 -486.51757845 78.72297208 -484.375 76.75 C-478.76849986 71.69817643 -472.87601251 67.07178231 -466.89941406 62.47119141 C-465.01227156 61.00950494 -463.14196646 59.52834704 -461.2734375 58.04296875 C-442.75852758 43.44820678 -422.89924376 30.59691159 -402.24755859 19.25244141 C-400.22112538 18.12322107 -398.22619807 16.95703597 -396.23828125 15.76171875 C-374.35275822 2.715835 -349.99265766 -6.69008339 -326 -15 C-324.6687207 -15.47228027 -324.6687207 -15.47228027 -323.31054688 -15.95410156 C-296.24682963 -25.49806018 -267.46408181 -31.68597355 -239 -35 C-237.26991699 -35.21994629 -237.26991699 -35.21994629 -235.50488281 -35.44433594 C-155.13736078 -45.52007003 -74.08218988 -31.87192306 0 0 Z M288 149 C286.989375 149.20625 285.97875 149.4125 284.9375 149.625 C264.19281933 155.22561573 249.9942997 183.73480176 240 201 C238.256302 204.04402927 236.55019191 207.10526923 234.875 210.1875 C234.30736938 211.21097534 234.30736938 211.21097534 233.72827148 212.25512695 C233.38223877 212.90698975 233.03620605 213.55885254 232.6796875 214.23046875 C232.37788574 214.79145264 232.07608398 215.35243652 231.76513672 215.93041992 C229.19362319 222.88597838 230.4234814 227.34969083 233.2265625 233.8359375 C233.5712558 234.67355621 233.9159491 235.51117493 234.27108765 236.37417603 C235.37359234 239.04785772 236.4975531 241.71175101 237.625 244.375 C239.08670051 247.85741926 240.53747665 251.34411168 241.9765625 254.8359375 C242.50192596 256.10929962 242.50192596 256.10929962 243.03790283 257.40838623 C246.29185672 265.44285213 248.76566824 273.63183382 251 282 C253.25245881 279.31158141 254.88213958 277.35358125 256 274 C256.66 274 257.32 274 258 274 C258.556875 272.88625 259.11375 271.7725 259.6875 270.625 C261.64632078 267.13802116 261.64632078 267.13802116 264.5625 266 C267.38545752 265.1540504 267.38545752 265.1540504 268.6875 261.625 C269.120625 260.42875 269.55375 259.2325 270 258 C271.5825993 254.15654455 274.03747766 251.8902657 277 249 C279.11773394 246.55646083 280.17241082 244.58771326 281.4375 241.5625 C283 238 283 238 284.84375 235.70703125 C287.25435922 232.68066859 289.17062959 229.48589503 291.0625 226.125 C291.40087891 225.53847656 291.73925781 224.95195312 292.08789062 224.34765625 C295.13022284 218.99268078 297.60969395 213.49845093 299.5 207.625 C300.22076368 205.38762941 300.94125025 203.16033786 301.75 200.953125 C303.96352699 194.81981064 305.1610743 188.55422995 306.3515625 182.16015625 C307 179 307 179 308 177 C308.29599687 173.06875325 308.27802989 169.1285823 308.3125 165.1875 C308.34150391 164.09373047 308.37050781 162.99996094 308.40039062 161.87304688 C308.46226229 155.60216082 308.46226229 155.60216082 306.35546875 149.796875 C303.4455603 147.57704434 301.63777643 147.24893604 298 147.0625 C296.96875 146.99160156 295.9375 146.92070312 294.875 146.84765625 C291.9388007 147.0032429 290.50589675 147.56113025 288 149 Z M221 236 C219.4818696 238.60250925 218.74274174 241.01977337 218.125 243.9375 C217.21707202 247.82657732 215.50934495 249.882329 213 253 C212.13245442 255.28866785 211.42612582 257.59994257 210.71484375 259.94140625 C209.87329911 262.36487088 208.53318606 263.95575192 207 266 C206.19564809 268.20777841 205.50267744 270.42833614 204.84375 272.68359375 C204 275 204 275 202.5 277.38671875 C200.78015513 280.38301099 200.17457741 282.99408228 199.5 286.375 C197.99014186 293.41836965 197.99014186 293.41836965 196.4375 296.6875 C194.82692495 300.39882511 194.16678415 303.88657093 193.52734375 307.86328125 C193 310 193 310 191 312 C189.80770288 316.32207707 189.0274106 320.56061543 188.53515625 325.01171875 C188.45587891 325.71925293 188.37660156 326.42678711 188.29492188 327.15576172 C188.14207464 328.57409416 188.0010991 329.99376514 187.87304688 331.41455078 C187.43607736 335.54271003 186.66181188 337.85169508 184 341 C182.68625925 344.51331811 182.90034217 348.0342165 182.9375 351.75 C182.94652344 352.92046875 182.95554687 354.0909375 182.96484375 355.296875 C182.97644531 356.18890625 182.98804688 357.0809375 183 358 C187.43282299 357.51005641 189.33131181 356.14051483 192.375 352.9375 C193.08398438 352.20402344 193.79296875 351.47054687 194.5234375 350.71484375 C196.46974229 348.5812762 198.36237379 346.42219083 200.24609375 344.234375 C204.18515054 339.71145963 208.41093435 335.51397231 212.6875 331.3125 C217.04218926 327.03308626 221.27313179 322.85112536 225 318 C226.299375 316.7315625 226.299375 316.7315625 227.625 315.4375 C229.70981899 313.29781736 230.88811642 311.72916878 232 309 C232.99 309 233.98 309 235 309 C235.97195231 307.29070456 236.94369116 305.5812872 237.9140625 303.87109375 C238.79796444 302.34811163 239.73528174 300.8562284 240.6875 299.375 C242.90990553 295.35350427 243.2709171 292.43227784 242.1015625 288.015625 C241.62333332 286.42282557 241.13007517 284.83449116 240.625 283.25 C240.35824463 282.38963135 240.09148926 281.5292627 239.81665039 280.64282227 C237.51582483 273.35309714 235.00505687 266.13700272 232.4375 258.9375 C232.07414551 257.91624023 231.71079102 256.89498047 231.33642578 255.84277344 C228.87682711 249.06868842 226.0761071 242.51660595 223 236 C222.34 236 221.68 236 221 236 Z M249 327 C247.31129162 328.83223332 245.62371989 330.66547797 243.9375 332.5 C243.43234863 333.04954346 242.92719727 333.59908691 242.40673828 334.1652832 C239.68385296 337.13574311 236.99924463 340.12898321 234.375 343.1875 C230.47721045 347.68494949 226.242099 351.83020951 222 356 C221.13375 356.86625 220.2675 357.7325 219.375 358.625 C218.59125 359.40875 217.8075 360.1925 217 361 C216.18595703 361.83144531 216.18595703 361.83144531 215.35546875 362.6796875 C212.52754589 365.55073773 209.71214828 368.29426706 206.5625 370.8125 C205.716875 371.534375 204.87125 372.25625 204 373 C204 373.66 204 374.32 204 375 C203.41992188 375.24878906 202.83984375 375.49757813 202.2421875 375.75390625 C199.68840102 377.17317086 198.10799686 378.7992082 196.125 380.9375 C192.9497408 384.19492857 190.22321048 386.20288916 186 388 C183.64358551 389.29531101 181.32625133 390.65077423 179 392 C178.6926456 400.10504947 178.61646989 406.58226092 182 414 C182.309375 415.175625 182.61875 416.35125 182.9375 417.5625 C185.03466239 424.37972654 185.03466239 424.37972654 189.96875 429.2578125 C191.35853277 429.93759755 192.76735418 430.58034957 194.1953125 431.17578125 C196 432 196 432 198 434 C200.58064129 434.14497985 203.04943884 434.18677545 205.625 434.125 C206.33140625 434.11597656 207.0378125 434.10695313 207.765625 434.09765625 C209.51056098 434.07407603 211.25532295 434.03820461 213 434 C213.23460937 433.3503125 213.46921875 432.700625 213.7109375 432.03125 C214.13632812 431.3609375 214.56171875 430.690625 215 430 C217.1015625 429.53125 217.1015625 429.53125 219.625 429.5 C224.2447339 429.23334869 227.25540998 428.1332472 231.26953125 425.921875 C235.6549086 423.58564689 241.13989173 423.17957805 246 424 C249.80982546 425.79443449 253.02600564 428.02600564 256 431 C260.94677318 377.19892395 260.94677318 377.19892395 249 327 Z " fill="#040204" transform="translate(720,38)"/>
<path d="M0 0 C2.3900076 1.74514889 4.2933613 3.53998579 6.25390625 5.75390625 C7.07375 6.64529297 7.07375 6.64529297 7.91015625 7.5546875 C12.98071977 14.58305193 12.56844159 25.46283092 11.25390625 33.75390625 C10.08597762 36.15188738 9.12103174 37.88678076 7.25390625 39.75390625 C6.75949514 41.96976694 6.3553314 44.19606795 5.94921875 46.4296875 C5.25390625 48.75390625 5.25390625 48.75390625 3.75 50.7265625 C1.96861437 53.14050282 1.64426564 54.93312188 1.19140625 57.87890625 C0.46480256 62.54300994 0.46480256 62.54300994 -1.74609375 64.75390625 C-2.73609375 64.75390625 -3.72609375 64.75390625 -4.74609375 64.75390625 C-4.6996875 65.34558594 -4.65328125 65.93726563 -4.60546875 66.546875 C-4.34428864 72.26485375 -4.97207336 74.33291093 -8.74609375 78.75390625 C-9.61557748 81.32954673 -10.29976983 83.90485 -10.9375 86.546875 C-11.74609375 88.75390625 -11.74609375 88.75390625 -14.74609375 90.75390625 C-15.65356894 92.99734427 -15.65356894 92.99734427 -16.24609375 95.56640625 C-16.97921971 98.45090779 -17.6785913 100.64392837 -19.2421875 103.19140625 C-20.94620397 106.09487328 -21.59526626 108.66009978 -22.30859375 111.94140625 C-23.53000542 117.53781792 -23.53000542 117.53781792 -25.74609375 119.75390625 C-26.14427478 122.10953763 -26.14427478 122.10953763 -26.23828125 124.83984375 C-26.33689453 126.35964844 -26.33689453 126.35964844 -26.4375 127.91015625 C-26.55942705 130.04777086 -26.67406835 132.18581408 -26.78125 134.32421875 C-26.84957031 135.34 -26.91789062 136.35578125 -26.98828125 137.40234375 C-27.06344971 138.79718994 -27.06344971 138.79718994 -27.14013672 140.22021484 C-27.90234797 143.40725287 -29.35247007 144.5904274 -31.74609375 146.75390625 C-32.42726313 148.8632869 -32.42726313 148.8632869 -32.49609375 151.00390625 C-32.57859375 152.24140625 -32.66109375 153.47890625 -32.74609375 154.75390625 C-31.09609375 155.08390625 -29.44609375 155.41390625 -27.74609375 155.75390625 C-27.41609375 157.40390625 -27.08609375 159.05390625 -26.74609375 160.75390625 C-26.08609375 160.75390625 -25.42609375 160.75390625 -24.74609375 160.75390625 C-24.50632812 160.11453125 -24.2665625 159.47515625 -24.01953125 158.81640625 C-22.74609375 156.75390625 -22.74609375 156.75390625 -20.72265625 156.06640625 C-19.94664062 155.96328125 -19.170625 155.86015625 -18.37109375 155.75390625 C-14.15877178 155.00937163 -12.72513248 153.83224627 -9.74609375 150.75390625 C-8.65296875 150.67140625 -7.55984375 150.58890625 -6.43359375 150.50390625 C-0.99432781 149.39761487 0.94720261 145.96094998 4.25390625 141.75390625 C5.83203125 139.99609375 5.83203125 139.99609375 7.25390625 138.75390625 C7.91390625 138.75390625 8.57390625 138.75390625 9.25390625 138.75390625 C9.52589844 138.19574219 9.79789062 137.63757813 10.078125 137.0625 C13.37376083 130.59166686 16.79646919 124.63687625 22.25390625 119.75390625 C25.31822812 116.93326803 27.26911866 114.25655944 29.19140625 110.56640625 C31.03532494 107.05551057 32.92462718 103.60535155 34.94140625 100.19140625 C37.1404525 96.27259305 38.43973992 92.35266263 39.578125 88.015625 C40.25390625 85.75390625 40.25390625 85.75390625 41.27734375 83.87866211 C42.94166938 80.25750562 42.58191065 76.55462088 42.56640625 72.62890625 C42.58251953 71.80519531 42.59863281 70.98148437 42.61523438 70.1328125 C42.61587891 69.34519531 42.61652344 68.55757813 42.6171875 67.74609375 C42.62016846 67.0279248 42.62314941 66.30975586 42.6262207 65.56982422 C42.39027123 63.33660065 42.39027123 63.33660065 39.25390625 61.75390625 C39.25390625 61.09390625 39.25390625 60.43390625 39.25390625 59.75390625 C40.57390625 59.42390625 41.89390625 59.09390625 43.25390625 58.75390625 C43.32222656 57.98691406 43.39054687 57.21992188 43.4609375 56.4296875 C44.25390625 53.75390625 44.25390625 53.75390625 46.328125 52.171875 C55.72479051 47.74743608 55.72479051 47.74743608 60.25390625 48.75390625 C62.94103498 50.09473423 65.19925446 51.55036665 67.25390625 53.75390625 C67.69140625 56.56640625 67.69140625 56.56640625 67.25390625 58.75390625 C67.91390625 58.75390625 68.57390625 58.75390625 69.25390625 58.75390625 C69.09664062 59.24503906 68.939375 59.73617187 68.77734375 60.2421875 C68.03873212 63.7864209 68.00795471 67.334802 67.87890625 70.94140625 C67.52070264 79.13287146 66.72859957 87.23875787 65.75390625 95.37890625 C65.62322754 96.4877417 65.49254883 97.59657715 65.35791016 98.73901367 C64.38308381 106.62472869 64.38308381 106.62472869 63.25390625 107.75390625 C63.02299105 110.12510365 62.8507731 112.47430245 62.71875 114.8515625 C62.65428429 115.91485023 62.65428429 115.91485023 62.58851624 116.99961853 C62.45177715 119.27164507 62.32152552 121.5439919 62.19140625 123.81640625 C62.10003527 125.353541 62.00824391 126.89065083 61.91601562 128.42773438 C61.6904271 132.20285266 61.47065745 135.97827067 61.25390625 139.75390625 C62.24390625 139.75390625 63.23390625 139.75390625 64.25390625 139.75390625 C64.50140625 139.01140625 64.74890625 138.26890625 65.00390625 137.50390625 C66.36540709 134.5086044 67.94669509 133.06111741 70.25390625 130.75390625 C71.02734375 129.17609375 71.02734375 129.17609375 71.81640625 127.56640625 C73.25390625 124.75390625 73.25390625 124.75390625 76.25390625 123.75390625 C76.39828125 123.15578125 76.54265625 122.55765625 76.69140625 121.94140625 C77.25390625 119.75390625 77.25390625 119.75390625 79.12890625 118.06640625 C81.80154638 115.15794493 82.45221422 112.44852633 83.4453125 108.6796875 C83.84556641 107.72642578 83.84556641 107.72642578 84.25390625 106.75390625 C85.73890625 106.25890625 85.73890625 106.25890625 87.25390625 105.75390625 C88.2657852 104.09442477 89.26656085 102.42810063 90.25390625 100.75390625 C90.91390625 100.75390625 91.57390625 100.75390625 92.25390625 100.75390625 C92.38345703 99.81417969 92.38345703 99.81417969 92.515625 98.85546875 C92.94017334 96.3860775 93.39663041 94.11033783 94.25390625 91.75390625 C96.87890625 90.19140625 96.87890625 90.19140625 99.25390625 89.75390625 C99.33640625 88.49578125 99.41890625 87.23765625 99.50390625 85.94140625 C99.98912833 81.98338045 99.98912833 81.98338045 102.12890625 80.12890625 C102.83015625 79.67515625 103.53140625 79.22140625 104.25390625 78.75390625 C105.32165849 76.78924212 106.3194409 74.78535266 107.25390625 72.75390625 C107.69734375 72.02558594 108.14078125 71.29726563 108.59765625 70.546875 C110.64481063 67.09471607 112.41491258 63.53838296 114.19140625 59.94140625 C114.8671875 58.58072917 115.54296875 57.22005208 116.21875 55.859375 C116.55124756 55.18640381 116.88374512 54.51343262 117.22631836 53.82006836 C117.93095605 52.40325944 118.64310869 50.99017045 119.36157227 49.58032227 C119.71791748 48.87963623 120.0742627 48.1789502 120.44140625 47.45703125 C120.76367188 46.82829102 121.0859375 46.19955078 121.41796875 45.55175781 C122.40915002 43.52586173 122.40915002 43.52586173 123.31640625 40.31640625 C123.62578125 39.47078125 123.93515625 38.62515625 124.25390625 37.75390625 C125.73890625 37.25890625 125.73890625 37.25890625 127.25390625 36.75390625 C127.41826172 35.30757813 127.41826172 35.30757813 127.5859375 33.83203125 C127.74449219 32.56875 127.90304687 31.30546875 128.06640625 30.00390625 C128.29263672 28.12445313 128.29263672 28.12445313 128.5234375 26.20703125 C129.2356103 22.84039619 129.84100766 21.16072701 132.25390625 18.75390625 C132.91390625 18.75390625 133.57390625 18.75390625 134.25390625 18.75390625 C134.16109375 17.39265625 134.16109375 17.39265625 134.06640625 16.00390625 C134.27193284 12.4414453 134.66113712 11.16147758 137.25390625 8.75390625 C138.57390625 8.75390625 139.89390625 8.75390625 141.25390625 8.75390625 C141.58390625 7.10390625 141.91390625 5.45390625 142.25390625 3.75390625 C143.24390625 4.08390625 144.23390625 4.41390625 145.25390625 4.75390625 C145.37765625 5.39328125 145.50140625 6.03265625 145.62890625 6.69140625 C145.83515625 7.37203125 146.04140625 8.05265625 146.25390625 8.75390625 C148.71095387 9.98680826 148.71095387 9.98680826 151.25390625 10.75390625 C154.43555788 13.93555788 153.32017452 23.6693104 153.44140625 28.12890625 C153.18107743 33.16193017 152.03832407 36.57727951 149.25390625 40.75390625 C148.73802424 43.19442499 148.28037109 45.60743413 147.87890625 48.06640625 C146.95139723 53.68174699 145.55714706 57.1384191 142.25390625 61.75390625 C141.30183948 63.98357219 141.30183948 63.98357219 140.69140625 66.06640625 C139.97984375 67.89171875 139.97984375 67.89171875 139.25390625 69.75390625 C137.76890625 70.24890625 137.76890625 70.24890625 136.25390625 70.75390625 C136.15078125 71.99140625 136.04765625 73.22890625 135.94140625 74.50390625 C135.50616233 78.01072873 134.88338868 80.22960312 132.25390625 82.75390625 C131.59390625 82.75390625 130.93390625 82.75390625 130.25390625 82.75390625 C130.35703125 83.66140625 130.46015625 84.56890625 130.56640625 85.50390625 C130.25390625 88.75390625 130.25390625 88.75390625 127.87890625 91.12890625 C125.25390625 92.75390625 125.25390625 92.75390625 123.25390625 92.75390625 C123.15078125 93.68203125 123.04765625 94.61015625 122.94140625 95.56640625 C122.19831017 99.01166987 121.71225646 99.4846599 119.25390625 101.75390625 C118.51140625 103.26984375 118.51140625 103.26984375 117.75390625 104.81640625 C116.25390625 107.75390625 116.25390625 107.75390625 113.25390625 109.75390625 C112.94453125 110.90890625 112.63515625 112.06390625 112.31640625 113.25390625 C111.25390625 116.75390625 111.25390625 116.75390625 109.25390625 117.87890625 C108.59390625 118.16765625 107.93390625 118.45640625 107.25390625 118.75390625 C106.54574446 120.40336952 105.88676962 122.07411276 105.25390625 123.75390625 C102.20848472 129.96978127 99.22210919 134.90687899 94.25390625 139.75390625 C93.08034024 141.56961216 91.93738655 143.40527208 90.81640625 145.25390625 C88.0514747 149.72729987 85.61186285 152.81481924 81.25390625 155.75390625 C80.59390625 155.75390625 79.93390625 155.75390625 79.25390625 155.75390625 C79.02445313 156.5015625 78.795 157.24921875 78.55859375 158.01953125 C76.98634064 161.3146725 75.39108166 162.4838717 72.37890625 164.50390625 C71.51523437 165.096875 70.6515625 165.68984375 69.76171875 166.30078125 C67.49084509 167.61661459 65.7638351 168.1565651 63.25390625 168.75390625 C62.38765625 169.77484375 62.38765625 169.77484375 61.50390625 170.81640625 C58.13438482 173.71793859 55.60626342 173.04406339 51.25390625 172.75390625 C51.04765625 172.11453125 50.84140625 171.47515625 50.62890625 170.81640625 C50.17515625 170.13578125 49.72140625 169.45515625 49.25390625 168.75390625 C48.32578125 168.63015625 47.39765625 168.50640625 46.44140625 168.37890625 C42.87915511 167.68042563 41.50606924 166.57561184 39.27709961 163.75048828 C37.21003855 159.71698187 37.74677334 155.29857058 37.94140625 150.87890625 C37.96396484 149.904375 37.98652344 148.92984375 38.00976562 147.92578125 C38.06839872 145.5335511 38.15039472 143.14454475 38.25390625 140.75390625 C36.93390625 140.75390625 35.61390625 140.75390625 34.25390625 140.75390625 C33.89619141 141.57761719 33.89619141 141.57761719 33.53125 142.41796875 C31.39046264 146.33292544 28.3351548 149.52213282 25.4453125 152.90234375 C23.13951825 155.65693487 23.13951825 155.65693487 21.90625 158.91796875 C20.01987942 162.15556931 18.61704536 162.65213519 15.18017578 163.88623047 C10.72833979 165.8915315 7.30796325 169.81167619 3.77148438 173.10351562 C-1.17731331 177.58342619 -4.86266582 179.75390625 -11.74609375 179.75390625 C-12.07609375 180.74390625 -12.40609375 181.73390625 -12.74609375 182.75390625 C-19.19316333 186.43260166 -28.6102941 185.86780311 -35.74609375 184.75390625 C-39.82699194 183.06560321 -42.65419181 180.87612095 -45.74609375 177.75390625 C-46.38289063 177.12097656 -47.0196875 176.48804688 -47.67578125 175.8359375 C-51.74609375 171.43737399 -51.74609375 171.43737399 -51.74609375 167.75390625 C-53.06609375 167.09390625 -54.38609375 166.43390625 -55.74609375 165.75390625 C-58.22201108 133.52888995 -58.22201108 133.52888995 -52.84765625 122.296875 C-51.44635106 119.06194707 -50.6592462 115.79880573 -49.80859375 112.37890625 C-47.72967061 104.28420157 -44.84156476 96.79517178 -40.99609375 89.37890625 C-39.59587951 86.75617043 -39.59587951 86.75617043 -39.24609375 83.62890625 C-38.687584 80.4174752 -37.67871767 79.30496983 -35.74609375 76.75390625 C-35.41609375 75.53703125 -35.08609375 74.32015625 -34.74609375 73.06640625 C-34.41609375 71.97328125 -34.08609375 70.88015625 -33.74609375 69.75390625 C-32.26109375 69.25890625 -32.26109375 69.25890625 -30.74609375 68.75390625 C-30.56433594 67.70589844 -30.38257813 66.65789062 -30.1953125 65.578125 C-29.94202317 64.1991053 -29.68808279 62.82020506 -29.43359375 61.44140625 C-29.31564453 60.75111328 -29.19769531 60.06082031 -29.07617188 59.34960938 C-28.34029757 55.443815 -27.62669394 53.41999366 -24.74609375 50.75390625 C-23.95178347 48.16613797 -23.95178347 48.16613797 -23.55859375 45.31640625 C-23.32076172 43.89521484 -23.32076172 43.89521484 -23.078125 42.4453125 C-22.66446776 39.54422385 -22.66446776 39.54422385 -22.74609375 35.75390625 C-23.26171875 36.45515625 -23.77734375 37.15640625 -24.30859375 37.87890625 C-26.22439587 40.13857029 -27.93202575 41.82820915 -30.18359375 43.69140625 C-32.49896856 45.61434465 -34.23598638 47.34428968 -36.18359375 49.69140625 C-38.28120759 52.1983106 -40.20189066 54.05612014 -42.68359375 56.12890625 C-47.52909714 60.27571345 -50.92374771 65.03906727 -54.4609375 70.30859375 C-57.84778918 75.30364415 -60.9482375 79.09839673 -65.74609375 82.75390625 C-66.07609375 83.41390625 -66.40609375 84.07390625 -66.74609375 84.75390625 C-67.40609375 84.75390625 -68.06609375 84.75390625 -68.74609375 84.75390625 C-68.99230469 85.33398438 -69.23851562 85.9140625 -69.4921875 86.51171875 C-70.94372527 89.10730343 -72.60721853 90.63330332 -74.80859375 92.62890625 C-79.222814 96.91517808 -82.39995776 101.47647283 -85.56274414 106.70458984 C-87.31238756 109.58611451 -89.11161085 112.27958613 -91.296875 114.83984375 C-93.55708436 117.52902427 -95.36842987 120.19225058 -97.18359375 123.19140625 C-104.2546503 134.50818452 -104.2546503 134.50818452 -108.74609375 136.75390625 C-109.36630642 138.3999683 -109.91743709 140.07230989 -110.43359375 141.75390625 C-112.52278896 147.77892615 -115.65590801 151.94648415 -119.74609375 156.75390625 C-120.36484375 157.70265625 -120.98359375 158.65140625 -121.62109375 159.62890625 C-124.38807117 162.39588367 -127.10280732 163.12928225 -130.8203125 164.17578125 C-132.73488124 164.58471508 -132.73488124 164.58471508 -133.74609375 165.75390625 C-136.07906808 165.79483562 -138.413146 165.79632348 -140.74609375 165.75390625 C-140.74609375 165.09390625 -140.74609375 164.43390625 -140.74609375 163.75390625 C-141.79796875 163.67140625 -142.84984375 163.58890625 -143.93359375 163.50390625 C-148.11772234 162.68079899 -149.9999597 162.01494043 -152.74609375 158.75390625 C-152.62840623 155.3409683 -152.27592061 152.81355998 -150.74609375 149.75390625 C-150.61808781 148.17232172 -150.51762184 146.58843597 -150.43359375 145.00390625 C-150.00455147 140.15296047 -148.46974094 137.79810965 -145.74609375 133.75390625 C-145.11411301 130.98796456 -144.69120843 128.2517248 -144.3359375 125.4375 C-143.74609375 122.75390625 -143.74609375 122.75390625 -142.28125 120.3203125 C-140.48045604 117.30982488 -139.91993633 114.68729461 -139.24609375 111.25390625 C-138.35883028 106.73308762 -137.11411442 103.66903376 -134.74609375 99.75390625 C-134.14515431 97.12728354 -133.81249121 94.53418999 -133.46875 91.86328125 C-132.84131375 89.16360961 -132.07510151 87.15703928 -130.9140625 84.671875 C-128.32421594 79.06298385 -126.67684287 73.24952277 -124.99609375 67.31640625 C-124.68027344 66.22908203 -124.36445313 65.14175781 -124.0390625 64.02148438 C-122.40606354 58.96620049 -122.40606354 58.96620049 -121.74609375 53.75390625 C-127.83025836 58.34939229 -131.76853869 63.45935146 -135.85546875 69.86328125 C-138.22897098 73.49218962 -140.75348221 76.6187894 -143.74609375 79.75390625 C-144.40609375 79.75390625 -145.06609375 79.75390625 -145.74609375 79.75390625 C-146.00003906 80.30691406 -146.25398437 80.85992187 -146.515625 81.4296875 C-150.39196974 88.75167201 -156.09133347 95.28526789 -161.203125 101.78125 C-162.28165211 103.16012643 -163.31792528 104.57263279 -164.3203125 106.0078125 C-164.79082031 106.58402344 -165.26132812 107.16023438 -165.74609375 107.75390625 C-166.40609375 107.75390625 -167.06609375 107.75390625 -167.74609375 107.75390625 C-167.89304687 108.31078125 -168.04 108.86765625 -168.19140625 109.44140625 C-170.1250688 116.02030413 -173.12145571 121.40209043 -178.19921875 126.09765625 C-180.39727222 128.45112765 -181.8593194 131.10948405 -183.49609375 133.87890625 C-189.74200677 144.19036677 -199.4487172 159.93029279 -211.62109375 163.81640625 C-212.27851563 163.95175781 -212.9359375 164.08710937 -213.61328125 164.2265625 C-215.94386211 164.71026969 -215.94386211 164.71026969 -218.5859375 166.26953125 C-224.18984104 168.90177272 -229.709537 168.77407784 -235.74609375 167.75390625 C-240.90859779 165.26780145 -245.43828945 162.40141252 -248.02734375 157.16015625 C-249.0368958 152.37575739 -249.03525908 147.75499 -248.99609375 142.87890625 C-249.00769531 141.44611328 -249.00769531 141.44611328 -249.01953125 139.984375 C-248.9827314 126.57083024 -248.9827314 126.57083024 -245.1953125 121.80078125 C-242.87998018 118.53060838 -242.91266563 114.92143545 -242.55859375 111.00390625 C-242.47673828 110.21113281 -242.39488281 109.41835938 -242.31054688 108.6015625 C-242.11104372 106.65347291 -241.92703437 104.70380754 -241.74609375 102.75390625 C-242.73609375 102.75390625 -243.72609375 102.75390625 -244.74609375 102.75390625 C-244.98585938 103.45386719 -245.225625 104.15382813 -245.47265625 104.875 C-249.80474556 114.6687111 -258.40033949 122.6721646 -265.98828125 130.03125 C-268.30824383 132.32163799 -270.45481127 134.64304668 -272.55859375 137.12890625 C-277.76379782 143.14938324 -281.71643382 147.15925662 -289.828125 148.33203125 C-291.97505409 148.62373696 -291.97505409 148.62373696 -293.74609375 150.75390625 C-300.24877694 152.90249523 -307.00534191 152.94711755 -313.28125 150.21484375 C-319.46698033 146.78312316 -324.08262868 143.41256893 -326.74609375 136.75390625 C-327.07609375 136.09390625 -327.40609375 135.43390625 -327.74609375 134.75390625 C-328.17179544 128.6581171 -327.55851629 122.55732865 -326.87109375 116.50390625 C-326.79246094 115.72789062 -326.71382812 114.951875 -326.6328125 114.15234375 C-326.08075482 109.17533148 -325.39083941 104.87836939 -322.24609375 100.81640625 C-320.56476326 98.73595138 -320.56476326 98.73595138 -319.80859375 95.75390625 C-318.74609375 92.75390625 -318.74609375 92.75390625 -316.74609375 90.81640625 C-314.47086898 88.80691899 -314.47086898 88.80691899 -313.87109375 85.44140625 C-312.20915985 79.99395624 -308.7724124 76.65741771 -304.68359375 72.81640625 C-302.94536526 70.96603399 -301.93412641 69.42893984 -300.68359375 67.25390625 C-295.46963851 58.62835067 -287.51264193 51.34318879 -280.3046875 44.375 C-278.53751093 42.63257367 -278.53751093 42.63257367 -276.74609375 39.75390625 C-276.08609375 39.75390625 -275.42609375 39.75390625 -274.74609375 39.75390625 C-274.48272217 39.16528809 -274.21935059 38.57666992 -273.94799805 37.97021484 C-272.69393514 35.6577259 -271.37724219 34.1412457 -269.515625 32.29296875 C-268.87689453 31.65617187 -268.23816406 31.019375 -267.58007812 30.36328125 C-266.91298828 29.7084375 -266.24589844 29.05359375 -265.55859375 28.37890625 C-264.91083984 27.73179687 -264.26308594 27.0846875 -263.59570312 26.41796875 C-261.66688146 24.50648914 -259.71593082 22.62305116 -257.74609375 20.75390625 C-257.12130127 20.15980957 -256.49650879 19.56571289 -255.8527832 18.95361328 C-255.25296631 18.40817871 -254.65314941 17.86274414 -254.03515625 17.30078125 C-253.50744629 16.81706055 -252.97973633 16.33333984 -252.43603516 15.83496094 C-249.29872434 13.82802475 -246.34719596 14.37484286 -242.74609375 14.75390625 C-242.46765625 13.82578125 -242.46765625 13.82578125 -242.18359375 12.87890625 C-240.01813495 9.67779323 -237.4086247 9.53873431 -233.74609375 8.75390625 C-233.08609375 8.75390625 -232.42609375 8.75390625 -231.74609375 8.75390625 C-231.41609375 7.43390625 -231.08609375 6.11390625 -230.74609375 4.75390625 C-225.3816086 3.17888003 -219.85517648 3.44812056 -214.30859375 3.37890625 C-212.60993164 3.32283203 -212.60993164 3.32283203 -210.87695312 3.265625 C-202.50030036 3.17677423 -202.50030036 3.17677423 -198.6015625 6.16015625 C-197.98925781 7.01609375 -197.37695312 7.87203125 -196.74609375 8.75390625 C-196.00359375 9.37265625 -195.26109375 9.99140625 -194.49609375 10.62890625 C-192.10853123 13.52808931 -192.02894776 16.07680411 -191.74609375 19.75390625 C-192.73609375 20.08390625 -193.72609375 20.41390625 -194.74609375 20.75390625 C-194.74609375 21.41390625 -194.74609375 22.07390625 -194.74609375 22.75390625 C-195.40609375 22.75390625 -196.06609375 22.75390625 -196.74609375 22.75390625 C-196.95234375 23.55828125 -197.15859375 24.36265625 -197.37109375 25.19140625 C-197.82484375 26.03703125 -198.27859375 26.88265625 -198.74609375 27.75390625 C-203.26448341 28.91212238 -207.55049431 28.74186652 -212.18359375 28.56640625 C-218.52347347 28.52298242 -221.74597212 28.92402585 -226.74609375 32.75390625 C-227.69484375 33.37265625 -228.64359375 33.99140625 -229.62109375 34.62890625 C-230.65234375 35.33015625 -231.68359375 36.03140625 -232.74609375 36.75390625 C-233.41382813 37.17285156 -234.0815625 37.59179688 -234.76953125 38.0234375 C-240.09995171 41.41807369 -244.7183496 45.258251 -249.35546875 49.546875 C-251.38519409 51.42072274 -253.45096141 53.21950324 -255.55859375 55.00390625 C-259.33933057 58.30528584 -262.92607716 61.79058655 -266.49609375 65.31640625 C-267.32911011 66.12996582 -267.32911011 66.12996582 -268.17895508 66.95996094 C-271.54302903 70.31640199 -274.18516844 73.72413465 -276.74609375 77.75390625 C-277.91706566 79.28750172 -279.10355402 80.80943262 -280.30859375 82.31640625 C-282.25750887 84.78170059 -283.95377131 87.10480971 -285.55859375 89.81640625 C-285.95046875 90.45578125 -286.34234375 91.09515625 -286.74609375 91.75390625 C-287.40609375 91.75390625 -288.06609375 91.75390625 -288.74609375 91.75390625 C-288.91625 92.52476562 -289.08640625 93.295625 -289.26171875 94.08984375 C-289.5040625 95.09273438 -289.74640625 96.095625 -289.99609375 97.12890625 C-290.228125 98.12664062 -290.46015625 99.124375 -290.69921875 100.15234375 C-291.94808057 103.25585858 -292.81052961 103.44722221 -295.74609375 104.75390625 C-296.09788572 107.08452805 -296.42939554 109.41825692 -296.74609375 111.75390625 C-297.76703125 112.92953125 -297.76703125 112.92953125 -298.80859375 114.12890625 C-301.589391 117.89643801 -301.10155017 121.22183683 -300.74609375 125.75390625 C-297.28123668 125.13358149 -297.28123668 125.13358149 -293.74609375 123.75390625 C-292.44948941 121.26356239 -292.44948941 121.26356239 -291.74609375 118.75390625 C-290.75609375 118.42390625 -289.76609375 118.09390625 -288.74609375 117.75390625 C-287.37970033 116.11423415 -286.05115185 114.44280497 -284.74609375 112.75390625 C-282.38817015 110.32861341 -279.9853285 107.97403545 -277.49609375 105.68359375 C-272.71294902 101.16106908 -270.25497602 98.29239608 -268.74609375 91.75390625 C-266.43359375 89.12890625 -266.43359375 89.12890625 -263.74609375 86.75390625 C-262.94171875 85.92890625 -262.13734375 85.10390625 -261.30859375 84.25390625 C-258.74609375 81.75390625 -258.74609375 81.75390625 -255.87109375 79.44140625 C-252.74075881 76.88603079 -250.22320856 73.94500814 -247.61328125 70.87109375 C-245.66439358 68.66126715 -243.60988597 66.61825584 -241.49609375 64.56640625 C-238.68164977 61.7843122 -236.62683238 59.25891916 -234.74609375 55.75390625 C-233.74178177 54.13934475 -232.71932927 52.53599188 -231.68359375 50.94140625 C-231.17699219 50.15121094 -230.67039062 49.36101562 -230.1484375 48.546875 C-229.68566406 47.95519531 -229.22289062 47.36351562 -228.74609375 46.75390625 C-228.08609375 46.75390625 -227.42609375 46.75390625 -226.74609375 46.75390625 C-226.51921875 46.19703125 -226.29234375 45.64015625 -226.05859375 45.06640625 C-223.1778708 39.99084677 -220.10072715 37.64987293 -214.55859375 36.06640625 C-213.69878906 35.85628906 -212.83898437 35.64617187 -211.953125 35.4296875 C-209.5673668 34.88791056 -209.5673668 34.88791056 -207.74609375 32.75390625 C-205.68359375 33.00390625 -205.68359375 33.00390625 -203.74609375 33.75390625 C-203.41609375 34.41390625 -203.08609375 35.07390625 -202.74609375 35.75390625 C-200.75211248 35.94687218 -198.75555456 36.13359603 -196.75390625 36.21484375 C-194.74609375 36.75390625 -194.74609375 36.75390625 -193.01171875 38.265625 C-191.19154432 41.84417781 -191.31082936 45.2708731 -191.37109375 49.19140625 C-191.35949219 49.94228516 -191.34789062 50.69316406 -191.3359375 51.46679688 C-191.36032445 56.08812426 -191.90771919 58.93108279 -194.74609375 62.75390625 C-196.32489912 65.44716248 -196.91694538 67.51053488 -197.62109375 70.62890625 C-198.55753682 74.63480161 -200.35608503 77.39295649 -202.74609375 80.75390625 C-203.07609375 81.57890625 -203.40609375 82.40390625 -203.74609375 83.25390625 C-204.74609375 85.75390625 -204.74609375 85.75390625 -206.62109375 88.50390625 C-210.79545645 94.88822567 -213.08958884 101.03932094 -214.15625 108.58984375 C-214.74609375 110.75390625 -214.74609375 110.75390625 -216.2109375 112.140625 C-218.48845089 114.53404238 -218.63448207 116.98408548 -219.24609375 120.19140625 C-220.42225078 126.34522784 -220.42225078 126.34522784 -222.296875 128.7109375 C-224.4225798 131.70755101 -224.26574769 134.37843134 -224.43359375 138.00390625 C-224.49933594 139.2671875 -224.56507813 140.53046875 -224.6328125 141.83203125 C-224.68888672 143.27835937 -224.68888672 143.27835937 -224.74609375 144.75390625 C-223.96234375 143.92890625 -223.17859375 143.10390625 -222.37109375 142.25390625 C-219.74609375 139.75390625 -219.74609375 139.75390625 -217.74609375 139.75390625 C-217.37484375 138.17609375 -217.37484375 138.17609375 -216.99609375 136.56640625 C-215.63755477 131.84477076 -213.02734326 128.93127066 -209.43359375 125.62890625 C-205.04927918 120.93870927 -201.49079273 115.35275027 -198.6875 109.5703125 C-196.84309131 106.01159863 -193.56927409 103.45948939 -190.55859375 100.87890625 C-188.48027566 98.73991414 -188.48027566 98.73991414 -187.74609375 95.25390625 C-186.65562573 91.43726819 -185.51367658 90.43500212 -182.74609375 87.75390625 C-182.40578125 86.39265625 -182.40578125 86.39265625 -182.05859375 85.00390625 C-180.29376652 80.63385787 -177.42993098 78.54076579 -173.83984375 75.5859375 C-171.55105746 73.74400326 -171.55105746 73.74400326 -169.74609375 70.75390625 C-169.08609375 70.75390625 -168.42609375 70.75390625 -167.74609375 70.75390625 C-167.40578125 69.70203125 -167.40578125 69.70203125 -167.05859375 68.62890625 C-165.74172214 65.74433034 -164.10690104 63.71495395 -162.0234375 61.34765625 C-160.50784707 59.55559179 -160.50784707 59.55559179 -158.93359375 56.37890625 C-156.86290323 52.58540121 -154.03856917 49.94765338 -150.9453125 46.96875 C-145.89351147 41.88105696 -141.51861565 36.14551578 -137.234375 30.40625 C-132.57686101 24.18048044 -127.97053785 18.51057751 -121.74609375 13.75390625 C-121.09382812 13.22023438 -120.4415625 12.6865625 -119.76953125 12.13671875 C-115.25604362 9.05221176 -110.02411707 9.39317804 -104.74609375 9.75390625 C-100.18302439 10.92120306 -97.02326725 13.40225154 -93.74609375 16.75390625 C-92.87109375 20.56640625 -92.87109375 20.56640625 -92.74609375 23.75390625 C-92.08609375 23.75390625 -91.42609375 23.75390625 -90.74609375 23.75390625 C-88.56750146 28.11109082 -89.07265967 34.39068974 -90.3828125 38.98828125 C-90.92987732 40.40798118 -91.47810717 41.82723259 -92.02734375 43.24609375 C-92.93663889 46.41874309 -93.04127484 49.3967236 -93.18359375 52.69140625 C-93.47020305 58.24446142 -94.46642236 62.40356921 -96.765625 67.43359375 C-98.06251975 70.5027391 -98.67233403 73.57388984 -99.25390625 76.84375 C-99.74609375 78.75390625 -99.74609375 78.75390625 -101.74609375 81.75390625 C-102.40609375 81.75390625 -103.06609375 81.75390625 -103.74609375 81.75390625 C-103.41609375 83.07390625 -103.08609375 84.39390625 -102.74609375 85.75390625 C-97.15803301 80.67193403 -93.28571287 74.47164722 -89.09375 68.234375 C-85.87592692 63.5314028 -82.61546318 59.3817017 -78.48583984 55.45458984 C-76.65664283 53.66646377 -75.00228703 51.79120962 -73.33984375 49.84765625 C-68.85807932 44.65561219 -63.95283158 39.91222301 -59.0625 35.109375 C-54.965986 31.0573078 -51.04712655 26.92700565 -47.30200195 22.546875 C-36.45081012 10.04237903 -18.01275287 -8.17363892 0 0 Z " fill="#020102" transform="translate(474.74609375,348.24609375)"/>
<path d="M0 0 C0.96164062 -0.01675781 1.92328125 -0.03351563 2.9140625 -0.05078125 C3.72617187 0.06910156 4.53828125 0.18898438 5.375 0.3125 C6.365 1.7975 6.365 1.7975 7.375 3.3125 C8.426875 3.539375 9.47875 3.76625 10.5625 4 C14.67046089 5.1382475 17.10654149 7.01093569 19.7890625 10.3125 C21.98236849 14.4614138 22.9759793 18.61280098 23.9375 23.1875 C24.11821045 24.02522949 24.2989209 24.86295898 24.48510742 25.72607422 C25.631221 32.04594928 24.92332621 37.13171887 23.375 43.3125 C23.07567271 44.87355057 22.78290976 46.43589075 22.5 48 C21.82745726 51.06983217 20.87451987 53.43653402 19.25 56.125 C17.03698658 59.27077647 17.03698658 59.27077647 17.375 63.3125 C20.10443537 63.36666741 22.83278564 63.40625225 25.5625 63.4375 C26.33142578 63.45425781 27.10035156 63.47101563 27.89257812 63.48828125 C32.29673693 63.52608519 35.27884716 63.04408859 39.375 61.3125 C41.41015625 61.609375 41.41015625 61.609375 43.375 62.3125 C44.09558594 62.50328125 44.81617188 62.6940625 45.55859375 62.890625 C52.06392916 64.82982377 55.43195055 67.39792583 59.25 73.125 C61.22265273 78.71418275 60.02418233 83.30013952 57.625 88.5 C55.71222957 92.04832776 53.34107271 94.56888274 50.375 97.3125 C47.09117073 100.8948592 45.32315995 104.47612319 43.44921875 108.890625 C38.67033679 119.66483161 38.67033679 119.66483161 35.375 121.3125 C34.61277699 123.29600985 34.61277699 123.29600985 34 125.625 C32.76928286 129.5920324 31.3636262 131.4202811 28.375 134.3125 C28.045 135.488125 27.715 136.66375 27.375 137.875 C26.375 141.3125 26.375 141.3125 24.375 142.6875 C21.5428723 144.98860375 21.50988807 147.35417567 20.96484375 150.86328125 C20.375 153.3125 20.375 153.3125 18.8828125 155.96484375 C16.85549834 160.46590136 16.64674385 164.6790214 16.3125 169.5625 C16.18392698 171.35997622 16.04758594 173.15691886 15.90234375 174.953125 C15.84812256 175.74235352 15.79390137 176.53158203 15.73803711 177.34472656 C15.375 179.3125 15.375 179.3125 13.375 181.3125 C12.68844977 187.14817697 13.99548218 190.72274945 17.375 195.3125 C18.68994512 196.66397138 20.01764858 198.00362542 21.375 199.3125 C21.375 199.9725 21.375 200.6325 21.375 201.3125 C22.23158203 201.27039146 22.23158203 201.27039146 23.10546875 201.22743225 C29.07441949 200.9412248 35.04385716 200.7064152 41.01611328 200.50073242 C43.24157496 200.41742723 45.46659435 200.32123203 47.69091797 200.21166992 C50.89780359 200.0559889 54.10344815 199.947485 57.3125 199.84765625 C58.79266602 199.76065208 58.79266602 199.76065208 60.30273438 199.67189026 C66.82473493 199.52936817 70.19673872 200.90583144 75.01391602 205.30931091 C76.74662499 207.85944284 76.81261515 209.2865444 76.375 212.3125 C74.07421875 214.8828125 74.07421875 214.8828125 71.0625 217.4375 C70.07636719 218.28570313 69.09023438 219.13390625 68.07421875 220.0078125 C67.18347656 220.76835938 66.29273438 221.52890625 65.375 222.3125 C64.88128906 222.89386719 64.38757813 223.47523438 63.87890625 224.07421875 C58.3314512 228.64186355 43.58671169 226.43979569 36.5625 226.5 C35.11375488 226.51969849 35.11375488 226.51969849 33.63574219 226.53979492 C18.64759212 226.55652851 18.64759212 226.55652851 14.82104492 222.77807617 C14.3438501 222.29443604 13.86665527 221.8107959 13.375 221.3125 C12.34375 221.10625 11.3125 220.9 10.25 220.6875 C2.41215297 218.71143263 -3.51369578 209.84221846 -7.625 203.3125 C-8.71991331 201.00792263 -9.66859293 198.68074608 -10.625 196.3125 C-11.285 195.3225 -11.945 194.3325 -12.625 193.3125 C-13.09009413 189.64138307 -12.99535793 185.94740954 -13 182.25 C-13.02449219 181.25033203 -13.04898438 180.25066406 -13.07421875 179.22070312 C-13.09860226 172.96633361 -12.16021652 168.3400768 -9.60058594 162.64575195 C-8.14426217 159.16274739 -7.602345 155.65482197 -7.0625 151.9375 C-6.38627888 147.30429465 -5.67705328 143.98289135 -2.625 140.3125 C-1.77542967 138.04304592 -1.12899705 135.76410864 -0.46875 133.43359375 C0.375 131.3125 0.375 131.3125 1.9453125 129.77734375 C4.087503 127.58247644 3.68001212 125.23215409 3.9375 122.30859375 C4.66366152 118.99548183 6.84793857 117.41838452 9.375 115.3125 C9.931875 114.714375 10.48875 114.11625 11.0625 113.5 C12.375 112.3125 12.375 112.3125 14.375 112.3125 C14.47296875 111.54164063 14.5709375 110.77078125 14.671875 109.9765625 C14.82140625 108.97367187 14.9709375 107.97078125 15.125 106.9375 C15.33382812 105.44089844 15.33382812 105.44089844 15.546875 103.9140625 C15.95679688 102.62628906 15.95679688 102.62628906 16.375 101.3125 C17.04015625 100.99023438 17.7053125 100.66796875 18.390625 100.3359375 C19.37289062 99.82933594 19.37289062 99.82933594 20.375 99.3125 C20.705 97.3325 21.035 95.3525 21.375 93.3125 C14.445 91.9925 7.515 90.6725 0.375 89.3125 C0.045 91.6225 -0.285 93.9325 -0.625 96.3125 C-1.93245749 97.99954193 -3.26672029 99.66610035 -4.625 101.3125 C-4.955 102.529375 -5.285 103.74625 -5.625 105 C-6.625 108.3125 -6.625 108.3125 -8.6875 109.5 C-9.6465625 109.9021875 -9.6465625 109.9021875 -10.625 110.3125 C-10.83382812 111.18068359 -10.83382812 111.18068359 -11.046875 112.06640625 C-11.77626653 114.90019093 -13.10296836 116.69255327 -14.8125 119.0625 C-15.4415625 119.93648438 -16.070625 120.81046875 -16.71875 121.7109375 C-17.3478125 122.56945312 -17.976875 123.42796875 -18.625 124.3125 C-19.1715625 125.06789063 -19.718125 125.82328125 -20.28125 126.6015625 C-22.2835716 129.32921488 -24.17500931 131.88439602 -26.6328125 134.22265625 C-28.78974123 136.48531678 -29.93964964 138.57570453 -31.3125 141.375 C-34.65918987 147.71342779 -38.93896514 152.92068755 -43.625 158.3125 C-44.24761719 159.04597656 -44.87023437 159.77945313 -45.51171875 160.53515625 C-47.18720349 162.48926092 -48.89477922 164.40680872 -50.625 166.3125 C-51.1303125 166.88355469 -51.635625 167.45460938 -52.15625 168.04296875 C-56.70669396 172.91685113 -62.02498061 176.51224951 -67.5390625 180.19921875 C-70.61028883 182.23208013 -70.61028883 182.23208013 -73.22265625 184.47265625 C-75.64037216 186.32427283 -77.54022258 187.19764107 -80.4375 188.0625 C-81.22769531 188.30484375 -82.01789062 188.5471875 -82.83203125 188.796875 C-83.42371094 188.96703125 -84.01539063 189.1371875 -84.625 189.3125 C-84.955 188.9825 -85.285 188.6525 -85.625 188.3125 C-87.37207505 188.04281727 -89.12282202 187.79674839 -90.875 187.5625 C-96.06003838 186.62037318 -98.41336236 185.68389568 -101.625 181.3125 C-102.23472656 180.64089844 -102.84445312 179.96929687 -103.47265625 179.27734375 C-110.59001342 170.3488102 -109.55854457 160.13063412 -108.625 149.3125 C-108.16044801 145.5768877 -107.58009099 141.95378438 -106.625 138.3125 C-105.965 138.3125 -105.305 138.3125 -104.625 138.3125 C-104.57601562 137.5596875 -104.52703125 136.806875 -104.4765625 136.03125 C-103.84615434 127.07510652 -102.80135216 118.20937703 -101.625 109.3125 C-100.14 108.8175 -100.14 108.8175 -98.625 108.3125 C-98.58761719 107.44367188 -98.55023437 106.57484375 -98.51171875 105.6796875 C-97.85874341 94.23341388 -97.85874341 94.23341388 -94.625 89.3125 C-93.965 89.3125 -93.305 89.3125 -92.625 89.3125 C-92.53863281 88.07113281 -92.45226562 86.82976562 -92.36328125 85.55078125 C-92.22253592 83.90875244 -92.08054304 82.26683024 -91.9375 80.625 C-91.88400391 79.80837891 -91.83050781 78.99175781 -91.77539062 78.15039062 C-91.38116675 73.91676904 -91.05541515 71.83736136 -88.29296875 68.46875 C-87.41253906 67.7571875 -86.53210938 67.045625 -85.625 66.3125 C-84.944375 65.64605469 -84.26375 64.97960937 -83.5625 64.29296875 C-82.923125 63.70128906 -82.28375 63.10960937 -81.625 62.5 C-80.6659375 61.59314453 -80.6659375 61.59314453 -79.6875 60.66796875 C-77.12836142 58.98611063 -75.63307214 58.99091334 -72.625 59.3125 C-70.625 60.1875 -70.625 60.1875 -68.625 61.3125 C-67.325625 61.745625 -67.325625 61.745625 -66 62.1875 C-63.625 63.3125 -63.625 63.3125 -62.49609375 64.828125 C-61.17634169 68.59208154 -61.29650845 72.22799118 -61.3125 76.1875 C-61.29638672 76.97769531 -61.28027344 77.76789063 -61.26367188 78.58203125 C-61.25951456 83.57911936 -61.89650201 86.97080247 -64.625 91.3125 C-65.285 91.9725 -65.945 92.6325 -66.625 93.3125 C-67.16732334 95.19866004 -67.16732334 95.19866004 -67.5 97.4375 C-69.3143008 107.18409269 -71.45207298 116.7619772 -75.25 125.9375 C-77.62635788 131.74395243 -78.53794451 137.28763309 -79.16796875 143.51171875 C-79.625 146.3125 -79.625 146.3125 -81.625 148.3125 C-82.08506346 150.51500992 -82.08506346 150.51500992 -82.25 152.9375 C-82.32476563 153.75476563 -82.39953125 154.57203125 -82.4765625 155.4140625 C-82.52554688 156.04054688 -82.57453125 156.66703125 -82.625 157.3125 C-76.68787795 157.11222711 -73.79350569 156.28298912 -69.65454102 152.00878906 C-69.12916748 151.42838867 -68.60379395 150.84798828 -68.0625 150.25 C-67.50167725 149.65799805 -66.94085449 149.06599609 -66.36303711 148.45605469 C-64.76454179 146.75810259 -63.19268791 145.03885438 -61.625 143.3125 C-60.54605469 142.16201172 -60.54605469 142.16201172 -59.4453125 140.98828125 C-55.29484878 136.44121766 -51.9269742 131.49717879 -48.625 126.3125 C-41.79741379 115.76077586 -41.79741379 115.76077586 -36.625 112.3125 C-35.71563534 109.09238262 -35.16310725 105.86545637 -34.56640625 102.57421875 C-33.52531964 98.96713445 -32.1284136 97.0700916 -29.625 94.3125 C-25.28264902 89.10167882 -24.49664285 86.11542885 -24.625 79.3125 C-25.49125 79.003125 -26.3575 78.69375 -27.25 78.375 C-31.24535619 75.93339344 -32.79253574 73.43532078 -35.1328125 69.46875 C-36.50419965 67.20981596 -36.50419965 67.20981596 -38.7265625 65.88671875 C-41.35026495 63.71109717 -41.4060913 61.94643659 -41.875 58.625 C-42.02453125 57.63113281 -42.1740625 56.63726562 -42.328125 55.61328125 C-42.42609375 54.85402344 -42.5240625 54.09476562 -42.625 53.3125 C-43.285 53.3125 -43.945 53.3125 -44.625 53.3125 C-44.625 52.3225 -44.625 51.3325 -44.625 50.3125 C-43.635 50.3125 -42.645 50.3125 -41.625 50.3125 C-41.52703125 49.68601562 -41.4290625 49.05953125 -41.328125 48.4140625 C-41.17859375 47.59679687 -41.0290625 46.77953125 -40.875 45.9375 C-40.73578125 45.12539063 -40.5965625 44.31328125 -40.453125 43.4765625 C-39.625 41.3125 -39.625 41.3125 -37.5859375 40.32421875 C-36.93882812 39.99035156 -36.29171875 39.65648437 -35.625 39.3125 C-34.99532946 37.06184114 -34.99532946 37.06184114 -35 34.5 C-34.71895632 27.35500496 -32.2728547 23.52113259 -27.375 18.4375 C-26.37519979 17.37994726 -25.3764935 16.32135922 -24.37890625 15.26171875 C-23.9008252 14.75560059 -23.42274414 14.24948242 -22.93017578 13.72802734 C-21.30662861 11.96721056 -19.8078375 10.12016877 -18.3125 8.25 C-15.54049035 5.22012899 -13.38619646 3.86603767 -9.625 2.3125 C-9.02171875 1.96445312 -8.4184375 1.61640625 -7.796875 1.2578125 C-5.0905612 0.07988455 -2.94393971 0.01190272 0 0 Z M-3.625 32.3125 C-5.42878801 34.14595558 -7.02102388 35.941965 -8.625 37.9375 C-9.06328125 38.45957031 -9.5015625 38.98164063 -9.953125 39.51953125 C-14.9462094 45.40710299 -14.9462094 45.40710299 -16.48046875 52.6484375 C-16.14982422 53.65777344 -16.14982422 53.65777344 -15.8125 54.6875 C-15.420625 55.88375 -15.02875 57.08 -14.625 58.3125 C-12.645 58.3125 -10.665 58.3125 -8.625 58.3125 C-8.37105469 57.50425781 -8.11710938 56.69601562 -7.85546875 55.86328125 C-7.33919922 54.26033203 -7.33919922 54.26033203 -6.8125 52.625 C-6.47605469 51.56925781 -6.13960937 50.51351562 -5.79296875 49.42578125 C-4.625 46.3125 -4.625 46.3125 -3.03125 43.71875 C-1.52868161 41.14768853 -1.15708798 39.442479 -0.9375 36.5 C-0.87175781 35.70980469 -0.80601562 34.91960937 -0.73828125 34.10546875 C-0.70089844 33.51378906 -0.66351562 32.92210937 -0.625 32.3125 C-1.615 32.3125 -2.605 32.3125 -3.625 32.3125 Z " fill="#020102" transform="translate(728.625,308.6875)"/>
<path d="M0 0 C1.06831055 -0.0309375 1.06831055 -0.0309375 2.15820312 -0.0625 C6.68393187 -0.0959929 9.64473765 0.36180517 13.1875 3.25 C14.38417203 6.84001609 14.39288881 9.8404839 14.4375 13.625 C14.46328125 14.93210938 14.4890625 16.23921875 14.515625 17.5859375 C14.17064706 21.43819113 13.62220195 23.2791165 11.1875 26.25 C9.21484375 27.25390625 9.21484375 27.25390625 7.125 27.8125 C5.02710002 28.31238566 5.02710002 28.31238566 3.1875 29.25 C2.73503906 30.23613281 2.73503906 30.23613281 2.2734375 31.2421875 C1.1875 33.25 1.1875 33.25 -1.23828125 34.19140625 C-2.19089844 34.39636719 -3.14351563 34.60132813 -4.125 34.8125 C-7.24492951 35.49777783 -9.56157613 36.09549412 -12.29296875 37.77734375 C-15.99546888 39.94144072 -19.67294383 40.11046251 -23.875 40.625 C-27.06363669 41.30343334 -29.09582717 42.48783384 -31.8125 44.25 C-36.43095524 45.78948508 -41.22346344 46.02632436 -46.05078125 46.5546875 C-49.8525008 47.25739371 -52.38574746 48.52559814 -55.8125 50.25 C-58.53623842 50.94357795 -61.28630898 51.38285139 -64.0625 51.8125 C-69.42396691 52.42088606 -69.42396691 52.42088606 -73.8125 55.25 C-80.41834062 57.29180528 -87.33745131 57.39068296 -94.1875 57.625 C-101.1511993 57.88178259 -107.0100432 58.92460615 -113.6171875 61.2734375 C-118.43798311 62.74678579 -123.30853671 63.17996465 -128.3046875 63.66015625 C-131.52401472 64.20149078 -133.91436684 65.16863935 -136.85253906 66.52563477 C-141.63068695 68.29154966 -146.9516654 68.44306613 -151.98632812 68.97851562 C-157.29868055 69.62861523 -161.21813161 70.75346852 -165.89379883 73.33422852 C-169.12319815 74.87557943 -172.40792996 75.17356578 -175.9375 75.5 C-176.95263672 75.61601562 -176.95263672 75.61601562 -177.98828125 75.734375 C-181.94306466 76.16274612 -185.83687586 76.32431073 -189.8125 76.25 C-189.8125 76.91 -189.8125 77.57 -189.8125 78.25 C-193.48657085 79.89287721 -196.70007253 80.61493361 -200.69921875 80.99609375 C-201.80201172 81.11146484 -202.90480469 81.22683594 -204.04101562 81.34570312 C-206.35823381 81.57467725 -208.67595757 81.79858822 -210.99414062 82.01757812 C-212.09306641 82.13423828 -213.19199219 82.25089844 -214.32421875 82.37109375 C-215.32928467 82.4683374 -216.33435059 82.56558105 -217.36987305 82.66577148 C-220.16475016 83.04150112 -220.16475016 83.04150112 -221.8125 86.25 C-225.30759356 86.8120438 -228.72467013 87.10454272 -232.25195312 87.33398438 C-237.81290467 87.81648587 -241.05648742 89.35875494 -245.8125 92.25 C-248.40234375 92.859375 -248.40234375 92.859375 -250.75 93 C-251.59175781 93.05542969 -252.43351563 93.11085938 -253.30078125 93.16796875 C-256.81137963 93.28262282 -260.30024575 93.31504175 -263.8125 93.25 C-264.18375 94.2090625 -264.18375 94.2090625 -264.5625 95.1875 C-265.8125 97.25 -265.8125 97.25 -267.5 97.875 C-270.38414667 98.34269946 -273.14167268 98.34424812 -276.0625 98.3125 C-277.14015625 98.30347656 -278.2178125 98.29445313 -279.328125 98.28515625 C-280.55789063 98.26775391 -280.55789063 98.26775391 -281.8125 98.25 C-282.1425 99.57 -282.4725 100.89 -282.8125 102.25 C-286.67481236 103.40047602 -290.48467683 104.39958382 -294.4375 105.1875 C-297.1737488 105.77055973 -298.79403476 106.23833774 -301.1875 107.75 C-305.39322657 110.15327232 -310.0645712 110.5432155 -314.8125 111.25 C-315.3075 112.735 -315.3075 112.735 -315.8125 114.25 C-318.83203125 115.3125 -318.83203125 115.3125 -322.625 116.25 C-327.15104465 117.37564841 -330.16501141 118.40015754 -333.8125 121.25 C-336.13241345 121.88342347 -338.41595032 122.24656351 -340.7890625 122.625 C-343.19087229 123.13366558 -343.19087229 123.13366558 -344.8125 126.25 C-346.9765625 126.76171875 -346.9765625 126.76171875 -349.4375 126.9375 C-350.25476563 127.00324219 -351.07203125 127.06898438 -351.9140625 127.13671875 C-352.54054688 127.17410156 -353.16703125 127.21148437 -353.8125 127.25 C-354.1425 128.24 -354.4725 129.23 -354.8125 130.25 C-356.58984375 131.19921875 -356.58984375 131.19921875 -358.75 131.9375 C-359.46027344 132.18886719 -360.17054688 132.44023437 -360.90234375 132.69921875 C-362.8125 133.25 -362.8125 133.25 -364.8125 133.25 C-365.10125 133.889375 -365.39 134.52875 -365.6875 135.1875 C-366.8125 137.25 -366.8125 137.25 -368.8125 138.25 C-370.81210012 138.289992 -372.81297242 138.29346799 -374.8125 138.25 C-375.1425 139.24 -375.4725 140.23 -375.8125 141.25 C-378.8125 143.25 -378.8125 143.25 -382.1875 144.0625 C-386.34144351 145.4232746 -387.91392595 147.0463129 -390.8125 150.25 C-391.59625 150.8275 -392.38 151.405 -393.1875 152 C-397.73059601 155.89408229 -402.97257123 161.09779449 -403.8125 167.25 C-403.88148242 169.84373914 -403.90684752 172.40810197 -403.875 175 C-403.87048828 175.69738281 -403.86597656 176.39476562 -403.86132812 177.11328125 C-403.8496002 178.82555803 -403.83166653 180.53779033 -403.8125 182.25 C-402.10855107 183.07165509 -400.39910102 183.88190645 -398.6875 184.6875 C-397.26050781 185.36619141 -397.26050781 185.36619141 -395.8046875 186.05859375 C-390.92868433 188.00008326 -386.14564586 188.36791848 -380.93359375 188.4609375 C-379.84755859 188.48929688 -378.76152344 188.51765625 -377.64257812 188.546875 C-375.37712124 188.59904442 -373.11146828 188.64328967 -370.84570312 188.6796875 C-369.76095703 188.710625 -368.67621094 188.7415625 -367.55859375 188.7734375 C-366.57560303 188.79325684 -365.5926123 188.81307617 -364.57983398 188.83349609 C-361.33320249 189.32213776 -359.45156988 190.31925067 -356.8125 192.25 C-353.42623653 197.3293952 -354.11806976 203.32651006 -354.8125 209.25 C-357.125 212.4375 -357.125 212.4375 -359.8125 214.25 C-360.286875 214.8275 -360.76125 215.405 -361.25 216 C-366.91167752 220.52934202 -378.83296737 218.5058115 -385.6875 217.9375 C-389.55077935 217.45285922 -392.35272761 216.05196479 -395.8125 214.25 C-397.18327148 213.99676511 -398.55906485 213.77000637 -399.9375 213.5625 C-410.51764861 211.44647028 -418.731575 202.8269896 -425.625 195.0625 C-426.22957031 194.38832031 -426.83414062 193.71414063 -427.45703125 193.01953125 C-428.8125 191.25 -428.8125 191.25 -428.8125 189.25 C-429.4725 189.25 -430.1325 189.25 -430.8125 189.25 C-434.19751282 182.47997436 -433.00637252 172.61715566 -432.8125 165.25 C-432.81894531 164.50492188 -432.82539063 163.75984375 -432.83203125 162.9921875 C-432.57075283 156.6468544 -428.99192013 153.52912796 -424.8125 149.25 C-423.61835866 147.8598441 -422.43070088 146.46408924 -421.25 145.0625 C-413.65717919 136.45050861 -413.65717919 136.45050861 -408.9375 135.9375 C-407.885625 136.0921875 -407.885625 136.0921875 -406.8125 136.25 C-406.57660156 135.67765625 -406.34070313 135.1053125 -406.09765625 134.515625 C-404.52248325 131.73872427 -402.65727935 130.09459674 -400.25 128 C-396.26558778 124.52407404 -396.26558778 124.52407404 -392.36328125 120.95703125 C-388.27472672 117.14613747 -385.28977945 114.74380349 -379.8125 113.25 C-379.10609375 112.65832031 -378.3996875 112.06664062 -377.671875 111.45703125 C-374.1143312 108.71111288 -370.3961255 107.01772594 -366.3125 105.1875 C-361.64649518 103.07208331 -357.1992632 100.90817875 -352.8125 98.25 C-350.75529015 97.41599601 -348.68401787 96.70747354 -346.58203125 95.99609375 C-344.60444732 95.29317396 -344.60444732 95.29317396 -342.8125 93.25 C-341.74 93.146875 -340.6675 93.04375 -339.5625 92.9375 C-335.00296389 92.10158505 -333.32422407 90.18838137 -329.8125 87.25 C-327.73046875 86.58203125 -327.73046875 86.58203125 -325.5625 86.125 C-321.58329442 85.64745223 -321.58329442 85.64745223 -319.8125 82.25 C-316.80078125 81.40625 -316.80078125 81.40625 -313.125 80.75 C-309.25020301 80.05078851 -305.97708096 79.32323012 -302.37109375 77.71875 C-297.72123996 75.79960068 -293.39027037 75.47704726 -288.421875 75.078125 C-284.54020236 74.85353867 -284.54020236 74.85353867 -281.42016602 72.81835938 C-279.29087598 70.74112943 -277.40203877 70.3152398 -274.54296875 69.53125 C-273.49512207 69.24024414 -272.44727539 68.94923828 -271.36767578 68.64941406 C-270.25634277 68.35260742 -269.14500977 68.05580078 -268 67.75 C-266.87319824 67.44030273 -265.74639648 67.13060547 -264.58544922 66.81152344 C-257.52898499 64.89690805 -250.49515511 63.20480362 -243.2890625 61.953125 C-240.7726597 61.46101707 -240.7726597 61.46101707 -239.3359375 59.734375 C-235.26881843 55.77154104 -227.09077279 56.96185389 -221.64648438 56.8203125 C-218.44587819 56.67441592 -216.18787679 56.48046281 -213.42895508 54.78662109 C-210.55860125 53.10088749 -208.45320483 52.63949194 -205.171875 52.1875 C-204.10066406 52.03023437 -203.02945313 51.87296875 -201.92578125 51.7109375 C-200.81589844 51.55882812 -199.70601562 51.40671875 -198.5625 51.25 C-191.74742441 50.30279279 -185.40195426 49.2507869 -178.92626953 46.90576172 C-175.30755375 45.78311554 -171.63659565 45.58932739 -167.875 45.3125 C-161.83313077 44.7668145 -157.08933619 43.79977767 -151.57421875 41.19140625 C-146.96358882 39.6197488 -142.15812767 39.36981656 -137.31835938 39.02148438 C-133.60194194 38.71962689 -130.94805561 38.30973367 -127.48828125 36.78515625 C-121.58580609 34.32004176 -115.4077568 34.07851486 -109.0859375 33.43359375 C-103.74259703 32.82829346 -100.41425598 32.06995607 -95.8125 29.25 C-91.44313501 28.35574679 -86.99315699 27.97981811 -82.56054688 27.52148438 C-76.81959756 26.83093602 -73.61731784 25.61542876 -68.8125 22.25 C-65.6015625 21.859375 -65.6015625 21.859375 -62.4375 22 C-60.84808594 22.05414063 -60.84808594 22.05414063 -59.2265625 22.109375 C-58.03160156 22.17898437 -58.03160156 22.17898437 -56.8125 22.25 C-56.1525 20.6 -55.4925 18.95 -54.8125 17.25 C-53.81089844 17.15203125 -52.80929687 17.0540625 -51.77734375 16.953125 C-43.48092583 16.31113098 -43.48092583 16.31113098 -35.9375 13.1875 C-32.82093549 11.25523 -31.68675015 10.98442689 -28.1875 10.75 C-23.94983887 10.46123263 -21.91074427 9.25435808 -18.8125 6.25 C-16.10370665 4.89560332 -13.80316732 5.18498549 -10.8125 5.25 C-10.68875 4.610625 -10.565 3.97125 -10.4375 3.3125 C-10.128125 2.2915625 -10.128125 2.2915625 -9.8125 1.25 C-6.69863918 -0.30693041 -3.41505068 0.02432805 0 0 Z " fill="#020102" transform="translate(432.8125,137.75)"/>
<path d="M0 0 C0.99 0.66 1.98 1.32 3 2 C3 2.66 3 3.32 3 4 C4.0725 4.061875 5.145 4.12375 6.25 4.1875 C10 5 10 5 12.17578125 7.0546875 C14.41550905 10.67086472 14.77202921 13.79303398 14.9375 17.9375 C15.01967773 18.97293945 15.01967773 18.97293945 15.10351562 20.02929688 C15.36431411 24.85635648 14.59996792 27.94659789 12 32 C10.0625 34.08203125 10.0625 34.08203125 8 35.8125 C7.319375 36.39644531 6.63875 36.98039062 5.9375 37.58203125 C1.49738257 40.83155268 -3.73102327 40.49013737 -9 40 C-12.625 38.5 -12.625 38.5 -15 37 C-15 36.34 -15 35.68 -15 35 C-16.1446875 34.7215625 -16.1446875 34.7215625 -17.3125 34.4375 C-21.10367211 32.40966375 -21.52599562 29.95301174 -23 26 C-23.8971875 24.700625 -23.8971875 24.700625 -24.8125 23.375 C-26 21 -26 21 -25.1875 18.1875 C-24.795625 17.465625 -24.40375 16.74375 -24 16 C-23.34 16 -22.68 16 -22 16 C-21.8453125 14.9171875 -21.8453125 14.9171875 -21.6875 13.8125 C-20.60737651 9.393813 -19.12460145 6.7481115 -15.29296875 4.19921875 C-14.26816406 3.70035156 -13.24335937 3.20148438 -12.1875 2.6875 C-11.17042969 2.17574219 -10.15335938 1.66398437 -9.10546875 1.13671875 C-5.78464337 -0.07882865 -3.50508377 -0.36664056 0 0 Z " fill="#030203" transform="translate(676,309)"/>
<path d="M0 0 C-0.87785156 0.38285156 -0.87785156 0.38285156 -1.7734375 0.7734375 C-4.20943713 2.11537414 -5.7321548 3.5987384 -7.625 5.625 C-9.4140625 7.5390625 -9.4140625 7.5390625 -11 9 C-11.66 9 -12.32 9 -13 9 C-10.89322153 3.31169814 -6.22566238 -0.91553859 0 0 Z " fill="#1F101F" transform="translate(656,368)"/>
<path d="M0 0 C0 4.38968456 -2.12805101 5.76905739 -5 9 C-5.33 7.68 -5.66 6.36 -6 5 C-4.02 3.35 -2.04 1.7 0 0 Z " fill="#1E101F" transform="translate(299,426)"/>
</svg>
